<svg width="630" height="736" viewBox="0 0 630 736" fill="none" xmlns="http://www.w3.org/2000/svg">
<path fill-rule="evenodd" clip-rule="evenodd" d="M416.761 996.434C414.292 856.104 361.221 560.296 353.597 484.109C345.975 407.922 373.09 382.12 399.089 394.69C425.088 407.264 432.866 583.046 432.866 583.046C432.866 583.046 434.657 617.45 441.442 656.627C465.973 798.256 448.755 998.448 448.755 998.448C448.755 998.448 444 1011.49 429.609 1009.75C415.22 1008.01 416.761 996.434 416.761 996.434Z" fill="#FFC999"/>
<path fill-rule="evenodd" clip-rule="evenodd" d="M264.573 990.308C267.042 849.978 320.113 554.17 327.735 477.983C335.36 401.797 308.242 375.994 282.246 388.564C256.247 401.138 248.466 576.92 248.466 576.92C248.466 576.92 246.678 611.324 239.892 650.501C215.362 792.133 232.58 992.322 232.58 992.322C232.58 992.322 237.335 1005.36 251.726 1003.63C266.112 1001.89 264.573 990.308 264.573 990.308Z" fill="#FFC999"/>
<path fill-rule="evenodd" clip-rule="evenodd" d="M280.313 358.699L282.045 348.197C282.045 348.197 328.828 348.237 384.653 348.581C385.035 353.939 386.568 360.45 386.568 360.45C386.568 360.45 346.232 373.978 280.313 358.699Z" fill="#002AB2"/>
<path fill-rule="evenodd" clip-rule="evenodd" d="M393.746 283.61L389.817 293.649C389.817 293.649 388.738 343.248 388.738 347.178C335.135 355.854 280.853 346.497 280.853 346.497L281.117 328.139L276.752 271.824L393.746 283.61Z" fill="white"/>
<path d="M392.933 282.856C393.109 282.407 393.615 282.186 394.064 282.361C394.463 282.517 394.682 282.935 394.603 283.341L394.559 283.492L390.684 293.389L389.121 346.261C389.107 346.943 389.1 347.422 389.1 347.686C389.1 348.106 388.8 348.467 388.387 348.544C357.466 354.281 325.825 353.964 296.719 349.983C292.568 349.416 288.8 348.811 285.46 348.203L284.362 348C283.309 347.803 282.365 347.617 281.535 347.446L279.894 347.095C279.532 347.011 279.268 346.71 279.224 346.353L279.218 346.196L280.246 327.652C280.273 327.171 280.684 326.802 281.166 326.829C281.593 326.853 281.932 327.181 281.983 327.591L281.989 327.749L281.001 345.55L281.408 345.637C282.028 345.767 282.722 345.908 283.485 346.056L284.684 346.285C288.262 346.956 292.373 347.627 296.956 348.254C325.262 352.125 355.987 352.512 386.064 347.191L387.361 346.954L387.503 341.122L388.22 316.637L388.945 293.186L389.004 292.896L392.933 282.856Z" fill="black"/>
<path fill-rule="evenodd" clip-rule="evenodd" d="M447.101 98.5625C447.101 98.5625 473.504 94.7328 480.48 122.641C506.062 131.944 499.086 159.85 499.086 159.85C499.086 159.85 511.933 181.774 486.41 193.005C484.366 215.468 458.844 211.382 458.844 211.382C458.844 211.382 452.717 228.74 433.318 221.594C412.389 237.874 387.452 217.993 387.452 217.993C387.452 217.993 364.196 227.296 354.896 217.993C333.964 224.97 310.706 199.387 310.706 199.387C310.706 199.387 297.64 202.706 288.338 181.774C264.038 185.545 237.491 154.576 259.749 125.618C245.148 102.505 261.79 88.8617 261.79 88.8617C261.79 88.8617 257.196 35.7692 293.953 28.6233C312.839 0.0344494 353.681 23.0077 353.681 23.0077C353.681 23.0077 380.736 17.3922 390.437 40.8765C420.669 45.5265 419.252 62.1447 421.579 76.1003C448.632 77.6306 447.101 98.5625 447.101 98.5625Z" fill="black"/>
<path fill-rule="evenodd" clip-rule="evenodd" d="M363.211 72.6384C342.01 76.3579 335.569 60.318 335.569 60.318C335.569 60.318 326.823 37.7266 324.583 51.5961C323.391 58.9679 311.996 49.1864 306.757 57.045C303.231 62.3324 312.047 69.1475 300.59 83.2456C293.952 91.4135 320.132 97.9327 303.981 112.988C303.981 112.988 315.465 131.365 295.738 137.36L291.376 158.757L336.838 158.687L335.375 134.047C366.006 134.047 367.501 91.946 363.211 72.6384Z" fill="#FFC999"/>
<path d="M324.13 95.0484C324.661 94.5175 325.522 94.5175 326.052 95.0484L326.33 95.3029C326.457 95.4132 326.619 95.5475 326.813 95.7009C327.477 96.2258 328.258 96.7536 329.145 97.2472C332.153 98.9203 335.586 99.7861 339.365 99.4196C340.112 99.3471 340.777 99.8942 340.849 100.642C340.922 101.389 340.374 102.053 339.627 102.126C335.255 102.55 331.285 101.549 327.824 99.6234C326.068 98.6469 324.82 97.6608 324.13 96.971C323.599 96.4401 323.599 95.5793 324.13 95.0484Z" fill="#F5222D"/>
<path d="M340.856 73.7964C341.393 73.8346 341.811 74.2585 341.858 74.7782L341.86 74.9667C341.834 75.6854 341.975 76.8902 342.449 78.5278C343.212 81.1661 344.637 84.128 346.893 87.3601C347.248 87.8681 347.105 88.5695 346.58 88.8987L345.173 89.7725C343.351 90.8926 341.744 91.8337 340.348 92.6095L339.834 92.8927C339.444 93.106 339.089 93.2964 338.767 93.4649L337.668 94.0197C337.641 94.0327 337.617 94.0437 337.597 94.053C337.053 94.3039 336.409 94.0667 336.159 93.5232C335.908 92.9797 336.145 92.3358 336.688 92.0849L337.192 91.8377L338.085 91.3737C338.306 91.256 338.543 91.1285 338.794 90.9908C340.089 90.2826 341.589 89.4165 343.297 88.3791L344.474 87.6546L344.205 87.2442C342.474 84.5579 341.281 82.0354 340.542 79.7077L340.367 79.1299C339.877 77.4367 339.693 76.0975 339.689 75.1583L339.698 74.8005C339.74 74.2034 340.259 73.7538 340.856 73.7964Z" fill="#DD936F"/>
<path fill-rule="evenodd" clip-rule="evenodd" d="M345.217 328.288C345.217 328.288 403.326 343.698 429.833 325.224C458.645 305.145 423.362 228.737 414.135 208.83C406.214 191.736 388.945 180.661 373.228 178.041C357.764 175.465 345.946 174.548 345.946 174.548L342.55 161.31C342.055 159.382 340.317 158.032 338.327 158.032H291.999C289.828 158.032 287.991 159.629 287.682 161.775L285.893 174.314C285.893 174.314 246.896 172.851 228.439 189.942C210.761 206.313 215.868 243.053 230.698 277.062C245.525 311.072 258.015 338.061 282.809 340.541C328.645 345.124 400.295 305.217 400.295 305.217C400.295 305.217 412.516 298.671 423.868 300.417C421.248 284.7 412.516 273.35 387.197 279.899L296.834 298.671" fill="white"/>
<path fill-rule="evenodd" clip-rule="evenodd" d="M400.73 252.615C400.73 252.615 405.097 267.02 396.039 278.698L397.021 293.758L332.848 328.466C332.848 328.466 402.69 344.568 430.599 328.288C451.531 316.078 445.514 281.349 429.45 246.352C429.45 246.352 416.815 242.524 400.73 252.615Z" fill="#FFC999"/>
<path fill-rule="evenodd" clip-rule="evenodd" d="M275.006 256.544L292.904 295.396L364.489 275.962C385.881 270.285 408.588 278.372 414.263 295.396C403.787 296.706 383.923 301.289 383.923 301.289C383.923 301.289 315.17 344.18 280.462 342.545C255.572 341.37 245.887 312.38 231.057 278.372C231.057 278.372 240.083 259.164 275.006 256.544Z" fill="#FFC999"/>
<path d="M391.563 215.072C392.045 215.072 392.436 215.463 392.436 215.945L392.422 217.161L392.395 218.366C392.378 218.993 392.355 219.655 392.326 220.347C392.212 223.094 392.022 225.841 391.739 228.464L391.605 229.604L392.012 230.024C394.759 232.932 396.95 236.022 398.618 239.273L399.025 240.089C403.947 250.29 403.625 261.158 400.139 271.415C399.579 273.06 398.98 274.546 398.379 275.848L398.074 276.494L397.564 277.49C397.328 277.91 396.796 278.06 396.375 277.824C395.955 277.588 395.806 277.056 396.041 276.636L396.291 276.163C396.428 275.893 396.598 275.543 396.794 275.118C397.37 273.869 397.947 272.439 398.486 270.854C401.838 260.991 402.147 250.576 397.453 240.847C395.692 237.198 393.25 233.747 390.071 230.527C389.883 230.337 389.793 230.071 389.826 229.806C390.204 226.777 390.447 223.526 390.583 220.274L390.65 218.318L390.689 216.221L390.691 215.945C390.691 215.463 391.081 215.072 391.563 215.072Z" fill="black"/>
<path d="M327.316 174.095C327.798 174.095 328.189 174.486 328.189 174.968C328.189 175.396 327.88 175.753 327.473 175.826L327.316 175.841H285.6C285.118 175.841 284.728 175.45 284.728 174.968C284.728 174.539 285.036 174.183 285.443 174.109L285.6 174.095H327.316Z" fill="black"/>
<path d="M346.922 174.22C347.062 173.675 347.618 173.347 348.163 173.487C348.654 173.613 348.969 174.076 348.924 174.564L348.896 174.728L335.145 228.205C334.959 228.929 334.099 229.196 333.537 228.76L333.413 228.647L283.43 175.17C283.045 174.759 283.067 174.114 283.478 173.729C283.844 173.388 284.394 173.367 284.782 173.655L284.919 173.778L333.632 225.898L346.922 174.22Z" fill="black"/>
<path fill-rule="evenodd" clip-rule="evenodd" d="M348.632 233.906C353.258 241.708 351.171 251.492 343.977 255.76C336.777 260.029 327.192 257.162 322.566 249.362C317.94 241.56 320.024 231.776 327.221 227.508C334.421 223.24 344.003 226.104 348.632 233.906Z" fill="#464646"/>
<path fill-rule="evenodd" clip-rule="evenodd" d="M350.292 233.868C354.92 241.67 352.833 251.454 345.636 255.72C338.439 259.988 328.854 257.124 324.228 249.321C319.603 241.519 321.687 231.738 328.884 227.47C336.081 223.201 345.666 226.066 350.292 233.868Z" fill="black"/>
<path fill-rule="evenodd" clip-rule="evenodd" d="M347.356 235.227C350.946 241.284 349.327 248.881 343.738 252.195C338.152 255.508 330.711 253.284 327.12 247.227C323.527 241.168 325.143 233.573 330.732 230.259C336.321 226.943 343.762 229.17 347.356 235.227Z" fill="#C961DE"/>
<path d="M314.896 128.934C315.182 128.408 315.84 128.213 316.366 128.499C322.295 131.725 328.438 133.345 334.603 133.429C335.202 133.437 335.68 133.929 335.672 134.528C335.664 135.126 335.172 135.605 334.574 135.597C328.055 135.508 321.567 133.796 315.33 130.404C314.805 130.118 314.61 129.459 314.896 128.934Z" fill="#DD936F"/>
<path fill-rule="evenodd" clip-rule="evenodd" d="M324.414 286.681C324.414 286.681 298.275 264.781 282.211 265.929C266.929 267.021 257.764 279.463 260.381 286.447C260.381 286.447 256.892 292.56 262.564 294.524C261.801 298.999 268.239 298.671 268.239 298.671C268.239 298.671 267.15 301.508 271.733 302.162C276.316 302.818 281.377 293.429 293.275 295.36L324.414 286.681Z" fill="#FFC999"/>
<path d="M281.556 264.275C274.398 264.786 266.717 269.885 261.198 276.697C258.882 279.555 257.286 282.371 256.837 284.433L256.783 284.71C256.49 286.437 257.082 287.673 258.351 288.078L258.431 288.099L258.332 288.329C257.974 289.206 257.801 290.096 257.892 290.981L257.935 291.293C258.171 292.627 259.029 293.725 260.512 294.495L260.843 294.655L260.842 294.729C260.857 296.861 262.294 298.213 264.51 298.821L264.979 298.937C265.447 299.04 265.913 299.107 266.358 299.146L266.481 299.153L266.49 299.241C266.541 299.644 266.672 300.052 266.903 300.452C267.57 301.604 268.926 302.364 271.005 302.661C272.163 302.827 273.309 302.535 274.667 301.832L275.082 301.609C275.925 301.137 279.142 299.013 279.18 298.989C283.669 296.154 287.47 295.035 292.527 295.856C292.675 295.88 292.827 295.873 292.972 295.836L325.31 287.48C326.171 287.257 326.412 286.15 325.722 285.589L324.557 284.668L323.372 283.756C322.749 283.282 322.08 282.781 321.369 282.258C317.987 279.767 314.35 277.276 310.597 274.95C306.264 272.265 302.055 269.975 298.067 268.201C291.963 265.485 286.602 264.074 282.157 264.242L281.556 264.275ZM297.186 270.181C301.075 271.912 305.201 274.156 309.455 276.793C313.155 279.086 316.745 281.545 320.084 284.003L321.642 285.165L322.644 285.928L292.643 293.681L292.874 293.717C287.436 292.834 283.252 293.97 278.585 296.807L278.023 297.156C277.922 297.22 274.785 299.291 274.024 299.717C272.856 300.37 272.02 300.616 271.312 300.515C269.838 300.305 269.075 299.877 268.779 299.366C268.657 299.155 268.619 298.923 268.64 298.699L268.677 298.486C268.937 297.806 268.469 297.086 267.762 297.019L267.561 297.016C266.846 297.036 265.935 296.964 265.084 296.731C263.509 296.299 262.82 295.54 263.061 294.133C263.15 293.61 262.849 293.099 262.347 292.926C260.786 292.385 260.14 291.66 260.048 290.76C259.983 290.121 260.193 289.364 260.6 288.592C260.822 288.171 261.043 287.849 261.174 287.686C261.825 286.879 261.08 285.706 260.072 285.953L259.682 286.04C258.813 286.203 258.724 285.954 258.955 284.894C259.319 283.223 260.76 280.681 262.883 278.061C268.059 271.672 275.25 266.899 281.711 266.437C285.847 266.141 291.1 267.474 297.186 270.181Z" fill="#DD936F"/>
<path d="M281.422 271.838C282.016 271.764 282.557 272.185 282.631 272.779C282.706 273.373 282.284 273.915 281.69 273.989C277.568 274.505 273.101 276.857 268.606 280.469C266.785 281.932 265.085 283.502 263.556 285.071L262.8 285.863L261.884 286.87C261.776 286.993 261.697 287.085 261.648 287.144C261.263 287.602 260.579 287.662 260.121 287.277C259.662 286.893 259.603 286.209 259.987 285.75L260.524 285.137C260.953 284.66 261.447 284.129 262.004 283.559C263.591 281.93 265.353 280.301 267.248 278.779C272.028 274.939 276.823 272.413 281.422 271.838Z" fill="#DD936F"/>
<path d="M288.631 277.69C289.229 277.671 289.73 278.139 289.75 278.738C289.77 279.336 289.301 279.837 288.703 279.857C288.341 279.869 287.975 279.893 287.607 279.927C282.491 280.412 276.93 283.033 271.316 287.112C269.103 288.719 267.036 290.443 265.175 292.166C264.686 292.618 264.239 293.046 263.836 293.442L262.92 294.367C262.892 294.397 262.868 294.423 262.848 294.445C262.439 294.882 261.754 294.907 261.316 294.498C260.878 294.09 260.854 293.404 261.262 292.967L261.911 292.299L262.749 291.476C263.047 291.188 263.366 290.887 263.702 290.575C265.623 288.797 267.755 287.019 270.042 285.358C275.942 281.072 281.828 278.297 287.402 277.769C287.815 277.73 288.224 277.704 288.631 277.69Z" fill="#DD936F"/>
<path d="M288.597 284.582C289.195 284.544 289.71 284.998 289.748 285.595C289.786 286.192 289.332 286.707 288.735 286.745C286.885 286.863 284.586 287.658 281.96 289.033C280.109 290.002 278.143 291.234 276.112 292.667C274.237 293.991 272.41 295.411 270.707 296.832L269.859 297.549L268.531 298.715C268.09 299.12 267.405 299.091 267 298.65C266.595 298.209 266.625 297.523 267.066 297.118L267.673 296.576L268.448 295.903C268.723 295.668 269.013 295.422 269.319 295.167C271.063 293.712 272.935 292.256 274.862 290.896C276.966 289.412 279.01 288.131 280.954 287.113C283.826 285.609 286.39 284.722 288.597 284.582Z" fill="#DD936F"/>
<path d="M264.633 228.177C265.036 228.034 265.475 228.205 265.682 228.564L265.747 228.707L275.392 255.814C275.588 256.366 275.196 256.95 274.611 256.978L274.109 257.01C273.69 257.04 273.204 257.082 272.655 257.136C271.082 257.292 269.327 257.522 267.437 257.84C262.038 258.747 256.641 260.174 251.613 262.229C242.415 265.988 235.522 271.41 231.837 278.761C231.621 279.192 231.097 279.366 230.666 279.15C230.235 278.934 230.061 278.41 230.277 277.979C234.177 270.198 241.398 264.518 250.952 260.613C256.112 258.504 261.631 257.046 267.148 256.119C268.756 255.848 270.27 255.64 271.662 255.486L272.894 255.36L273.363 255.317L264.103 229.292C263.959 228.889 264.131 228.449 264.49 228.243L264.633 228.177Z" fill="black"/>
<path d="M408.816 247.767C415.539 244.864 422.678 243.679 429.728 245.215C430.199 245.318 430.497 245.783 430.395 246.254C430.292 246.725 429.827 247.023 429.356 246.921C422.711 245.472 415.924 246.599 409.508 249.37C408.208 249.931 407.011 250.525 405.932 251.125L405.298 251.485C404.561 251.914 404.049 252.244 403.79 252.427C403.396 252.704 402.851 252.609 402.574 252.215C402.296 251.821 402.391 251.277 402.785 250.999L403.22 250.71C403.564 250.487 403.965 250.241 404.421 249.976C405.717 249.222 407.19 248.47 408.816 247.767Z" fill="black"/>
<path d="M395.639 276.815C395.875 276.265 396.512 276.01 397.062 276.246C400.91 277.895 404.456 280.54 407.685 283.904C409.657 285.958 411.391 288.156 412.876 290.355C413.266 290.932 413.618 291.48 413.932 291.989L414.475 292.902C414.58 293.083 414.657 293.223 414.707 293.318C415.024 293.912 414.727 294.633 414.115 294.849L413.956 294.892L394.196 298.692L328.971 331.43C328.489 331.671 327.914 331.52 327.608 331.098L327.516 330.947C327.274 330.466 327.425 329.89 327.848 329.584L327.999 329.492L393.358 296.689L393.639 296.593L412.04 293.053L411.774 292.627C411.667 292.458 411.555 292.285 411.439 292.109L411.08 291.568C409.66 289.466 408.001 287.364 406.121 285.405C403.079 282.236 399.761 279.761 396.209 278.238C395.658 278.003 395.403 277.365 395.639 276.815Z" fill="#DD936F"/>
<path d="M281.078 358.172C281.256 357.638 281.834 357.35 282.368 357.529L283.464 357.875L284.428 358.164C285.106 358.363 285.854 358.576 286.669 358.8C290.166 359.759 294.17 360.719 298.615 361.616C326.813 367.302 356.83 367.73 385.136 359.472C385.676 359.314 386.242 359.625 386.4 360.165C386.558 360.705 386.247 361.271 385.707 361.429C357.04 369.793 326.706 369.36 298.212 363.614C293.72 362.708 289.671 361.737 286.129 360.766L284.939 360.433C284.369 360.272 283.838 360.116 283.346 359.969L281.983 359.547C281.875 359.513 281.788 359.484 281.721 359.462C281.187 359.283 280.899 358.706 281.078 358.172Z" fill="#253368"/>
<path d="M326.62 73.6545C327.342 73.6545 327.928 74.2403 327.928 74.9629C327.928 79.9902 324.143 84.1085 319.415 84.1085C314.689 84.1085 310.907 79.9901 310.907 74.9629C310.907 74.2403 311.493 73.6545 312.215 73.6545C312.938 73.6545 313.524 74.2403 313.524 74.9629C313.524 78.5922 316.187 81.4916 319.415 81.4916C322.646 81.4916 325.311 78.5919 325.311 74.9629C325.311 74.2403 325.897 73.6545 326.62 73.6545Z" fill="#253368"/>
<path d="M359.626 74.5541C360.312 74.5541 360.867 75.1098 360.867 75.7953C360.867 80.7619 357.467 84.8736 353.145 84.8736C348.822 84.8736 345.422 80.7619 345.422 75.7953C345.422 75.1098 345.978 74.5541 346.663 74.5541C347.349 74.5541 347.904 75.1098 347.904 75.7953C347.904 79.484 350.308 82.3911 353.145 82.3911C355.981 82.3911 358.385 79.484 358.385 75.7953C358.385 75.1098 358.941 74.5541 359.626 74.5541Z" fill="#253368"/>
<path d="M311.838 59.5643C316.832 57.4563 322.12 57.6676 327.119 59.2732C328.555 59.7347 329.628 60.2009 330.243 60.5253C330.882 60.8626 331.127 61.6541 330.79 62.2932C330.452 62.9323 329.661 63.1769 329.022 62.8397L328.693 62.68C328.592 62.633 328.471 62.579 328.333 62.5189C327.744 62.2629 327.068 62.0055 326.318 61.7647C321.863 60.3336 317.187 60.1468 312.855 61.9752C312.065 62.3089 311.294 62.7084 310.545 63.1766C309.932 63.5596 309.125 63.3734 308.742 62.7606C308.359 62.1479 308.545 61.3406 309.158 60.9576C310.025 60.4153 310.92 59.9518 311.838 59.5643Z" fill="#253368"/>
<path fill-rule="evenodd" clip-rule="evenodd" d="M382.358 358.153C405.328 359.683 461.487 504.09 482.672 555.714C480.049 566.192 463.528 584.814 463.528 584.814C463.528 584.814 465.413 593.108 466.573 598.092C447.176 614.428 409.4 623.618 409.4 623.618V630.764C349.159 659.352 267.749 633.566 267.749 633.566C267.749 633.566 266.216 632.036 267.238 626.42C239.736 626.42 180.455 592.216 180.455 592.216L188.623 574.861L164.119 550.354C164.119 550.354 238.999 422.296 251.755 394.143C265.964 362.786 281.662 356.964 281.662 356.964C281.662 356.964 341.596 355.433 382.358 358.153Z" fill="#002AB2"/>
<path d="M253.045 438.627C253.287 438.119 253.895 437.904 254.404 438.146C254.861 438.364 255.081 438.878 254.944 439.349L254.885 439.504L182.755 590.873L183.662 591.524L184.432 592.062C186.374 593.409 188.662 594.91 191.282 596.529C198.777 601.156 207.422 605.786 217.098 610.107C232.633 617.045 249.312 622.506 266.921 625.932C267.474 626.039 267.835 626.574 267.727 627.127C267.62 627.679 267.084 628.04 266.532 627.933C248.763 624.476 231.937 618.967 216.267 611.969C206.504 607.609 197.78 602.937 190.211 598.263C187.854 596.808 185.76 595.444 183.94 594.199L183.27 593.738C182.855 593.45 182.474 593.182 182.126 592.933L181.156 592.23C181.02 592.129 180.919 592.054 180.855 592.005C180.52 591.749 180.382 591.318 180.491 590.923L180.553 590.756L253.045 438.627Z" fill="black"/>
<path d="M399.596 425.355C400.068 425.17 400.594 425.361 400.844 425.784L400.917 425.933L468.546 598.741C468.72 599.185 468.562 599.691 468.166 599.958L467.691 600.27C467.306 600.521 466.851 600.811 466.33 601.137L464.997 601.96C463.838 602.667 462.558 603.423 461.166 604.219C455.601 607.403 449.368 610.586 442.615 613.557C431.901 618.27 420.901 621.995 409.869 624.36C409.319 624.478 408.777 624.127 408.659 623.577C408.541 623.026 408.891 622.484 409.442 622.366C420.328 620.033 431.199 616.352 441.794 611.691C448.479 608.751 454.648 605.6 460.154 602.45C462.079 601.348 463.784 600.326 465.248 599.409L466.345 598.711L399.019 426.676C398.834 426.204 399.025 425.678 399.447 425.428L399.596 425.355Z" fill="black"/>
<path d="M361.47 385.488C362.021 385.373 362.562 385.726 362.677 386.277L366.357 403.992C367.666 410.324 369.059 417.102 370.525 424.264L371.862 430.811C378.221 461.981 384.58 493.777 390.577 524.622L392.069 532.313C393.171 538.008 394.251 543.625 395.308 549.157L397.598 561.193C402.537 587.293 406.846 610.944 410.403 631.613C410.487 632.103 410.206 632.582 409.738 632.747C406.325 633.951 402.862 635.057 399.353 636.065C362.789 646.569 323.799 646.233 287.086 639.364C281.457 638.311 276.382 637.182 271.944 636.053L270.452 635.667C269.976 635.541 269.522 635.419 269.089 635.301L267.311 634.802C266.901 634.684 266.605 634.595 266.426 634.54C265.982 634.402 265.695 633.985 265.708 633.535L265.729 633.364L300.972 458.797C301.083 458.246 301.621 457.889 302.173 458C302.669 458.1 303.008 458.546 302.99 459.036L302.97 459.201L267.912 632.853L269.628 633.335C270.481 633.568 271.422 633.816 272.446 634.077C276.844 635.196 281.876 636.315 287.461 637.36C323.889 644.175 362.576 644.51 398.79 634.106C401.567 633.308 404.313 632.449 407.029 631.527L408.246 631.105L406.932 623.538C403.554 604.24 399.58 582.582 395.099 558.954L394.094 553.671C392.788 546.811 391.444 539.817 390.067 532.7C384.628 504.587 378.86 475.564 373.042 446.845L367.229 418.333L360.682 386.695C360.566 386.144 360.919 385.604 361.47 385.488Z" fill="black"/>
<path d="M332.365 388.788C332.871 388.816 333.271 389.208 333.325 389.696L333.329 389.861L324.414 558.065C324.384 558.627 323.904 559.059 323.342 559.031C322.836 559.002 322.436 558.611 322.382 558.123L322.378 557.957L331.293 389.754C331.323 389.191 331.803 388.76 332.365 388.788Z" fill="black"/>
<path d="M302.515 363.194C302.691 362.659 303.267 362.367 303.802 362.543C304.283 362.701 304.567 363.183 304.491 363.668L304.452 363.83L270.762 466.44C270.586 466.975 270.01 467.266 269.475 467.091C268.994 466.933 268.71 466.45 268.786 465.965L268.825 465.804L302.515 363.194Z" fill="black"/>
</svg>
