<svg width="1440" height="1400" viewBox="0 0 1440 1400" fill="none" xmlns="http://www.w3.org/2000/svg">
<g filter="url(#filter0_f_203_498)">
<circle cx="711" cy="700" r="500" fill="url(#paint0_radial_203_498)" fill-opacity="0.6"/>
</g>
<g style="mix-blend-mode:overlay">
<path d="M597.07 467.16C388.617 491.539 234 581.015 234 687.665C234 813.07 447.781 914.731 711.493 914.731C975.204 914.731 1188.99 813.07 1188.99 687.665C1188.99 577.564 1024.2 485.766 805.514 465" stroke="url(#paint1_angular_203_498)" stroke-width="1.70856" stroke-linecap="round"/>
</g>
<g style="mix-blend-mode:overlay">
<path d="M597.07 468.76C388.617 493.138 234 582.615 234 689.264C234 814.669 447.781 916.33 711.493 916.33C975.204 916.33 1188.99 814.669 1188.99 689.264C1188.99 579.164 1024.2 487.366 805.514 466.599" stroke="url(#paint2_angular_203_498)" stroke-width="1.70856" stroke-linecap="round"/>
</g>
<g style="mix-blend-mode:overlay">
<path d="M821.746 472.28C1032.3 495.946 1188.99 585.903 1188.99 693.263C1188.99 818.668 975.204 920.328 711.493 920.328C447.781 920.328 234 818.668 234 693.263C234 588.369 383.568 500.088 586.818 474.015" stroke="url(#paint3_angular_203_498)" stroke-width="1.70856" stroke-linecap="round"/>
</g>
<g style="mix-blend-mode:overlay">
<path d="M570.587 482.643C375.655 511.231 234 597.579 234 699.66C234 825.065 447.781 926.726 711.493 926.726C975.204 926.726 1188.99 825.065 1188.99 699.66C1188.99 594.27 1038 505.65 833.279 480.046" stroke="url(#paint4_angular_203_498)" stroke-width="1.70856" stroke-linecap="round"/>
</g>
<g style="mix-blend-mode:overlay">
<path d="M850.791 491.204C1046.55 519.553 1188.99 606.094 1188.99 708.456C1188.99 833.861 975.204 935.522 711.493 935.522C447.781 935.522 234 833.861 234 708.456C234 609.457 367.228 525.256 553.074 494.185" stroke="url(#paint5_angular_203_498)" stroke-width="1.70856" stroke-linecap="round"/>
</g>
<g style="mix-blend-mode:overlay">
<path d="M486.195 297.756C123.801 340.138 -145 495.692 -145 681.102C-145 899.118 226.657 1075.85 685.119 1075.85C1143.58 1075.85 1515.24 899.118 1515.24 681.102C1515.24 489.693 1228.76 330.102 848.575 294" stroke="url(#paint6_angular_203_498)" stroke-width="2.97033" stroke-linecap="round"/>
</g>
<g style="mix-blend-mode:overlay">
<path d="M486.195 300.536C123.801 342.918 -145 498.473 -145 683.882C-145 901.898 226.657 1078.63 685.119 1078.63C1143.58 1078.63 1515.24 901.898 1515.24 683.882C1515.24 492.473 1228.76 332.882 848.575 296.78" stroke="url(#paint7_angular_203_498)" stroke-width="2.97033" stroke-linecap="round"/>
</g>
<g style="mix-blend-mode:overlay">
<path d="M876.794 306.656C1242.85 347.8 1515.24 504.19 1515.24 690.834C1515.24 908.85 1143.58 1085.59 685.119 1085.59C226.657 1085.59 -145 908.85 -145 690.834C-145 508.476 115.023 354.999 468.373 309.672" stroke="url(#paint8_angular_203_498)" stroke-width="2.97033" stroke-linecap="round"/>
</g>
<g style="mix-blend-mode:overlay">
<path d="M440.155 324.672C101.266 374.372 -145 524.487 -145 701.955C-145 919.971 226.657 1096.71 685.119 1096.71C1143.58 1096.71 1515.24 919.971 1515.24 701.955C1515.24 518.735 1252.75 364.67 896.843 320.158" stroke="url(#paint9_angular_203_498)" stroke-width="2.97033" stroke-linecap="round"/>
</g>
<g style="mix-blend-mode:overlay">
<path d="M927.289 339.556C1267.62 388.84 1515.24 539.292 1515.24 717.247C1515.24 935.263 1143.58 1112 685.119 1112C226.657 1112 -145 935.263 -145 717.247C-145 545.139 86.6161 398.756 409.709 344.739" stroke="url(#paint10_angular_203_498)" stroke-width="2.97033" stroke-linecap="round"/>
</g>
<defs>
<filter id="filter0_f_203_498" x="11" y="0" width="1400" height="1400" filterUnits="userSpaceOnUse" color-interpolation-filters="sRGB">
<feFlood flood-opacity="0" result="BackgroundImageFix"/>
<feBlend mode="normal" in="SourceGraphic" in2="BackgroundImageFix" result="shape"/>
<feGaussianBlur stdDeviation="100" result="effect1_foregroundBlur_203_498"/>
</filter>
<radialGradient id="paint0_radial_203_498" cx="0" cy="0" r="1" gradientUnits="userSpaceOnUse" gradientTransform="translate(676 785) rotate(89.2284) scale(594.054)">
<stop stop-color="#2954A3"/>
<stop offset="1" stop-color="#0F103F"/>
</radialGradient>
<radialGradient id="paint1_angular_203_498" cx="0" cy="0" r="1" gradientUnits="userSpaceOnUse" gradientTransform="translate(718.381 709.459) scale(508.767 237.904)">
<stop offset="0.458333" stop-color="white"/>
<stop offset="0.717799" stop-color="white" stop-opacity="0"/>
<stop offset="0.782437" stop-color="white" stop-opacity="0"/>
<stop offset="1" stop-color="white" stop-opacity="0.4"/>
</radialGradient>
<radialGradient id="paint2_angular_203_498" cx="0" cy="0" r="1" gradientUnits="userSpaceOnUse" gradientTransform="translate(718.381 711.059) scale(508.767 237.905)">
<stop offset="0.458333" stop-color="white"/>
<stop offset="0.717799" stop-color="white" stop-opacity="0"/>
<stop offset="0.782437" stop-color="white" stop-opacity="0"/>
<stop offset="1" stop-color="white" stop-opacity="0.4"/>
</radialGradient>
<radialGradient id="paint3_angular_203_498" cx="0" cy="0" r="1" gradientUnits="userSpaceOnUse" gradientTransform="translate(718.381 715.825) scale(508.767 237.015)">
<stop offset="0.458333" stop-color="white"/>
<stop offset="0.717799" stop-color="white" stop-opacity="0"/>
<stop offset="0.782437" stop-color="white" stop-opacity="0"/>
<stop offset="1" stop-color="white" stop-opacity="0.4"/>
</radialGradient>
<radialGradient id="paint4_angular_203_498" cx="0" cy="0" r="1" gradientUnits="userSpaceOnUse" gradientTransform="translate(718.381 722.847) scale(508.767 236.29)">
<stop offset="0.458333" stop-color="white"/>
<stop offset="0.717799" stop-color="white" stop-opacity="0"/>
<stop offset="0.782437" stop-color="white" stop-opacity="0"/>
<stop offset="1" stop-color="white" stop-opacity="0.4"/>
</radialGradient>
<radialGradient id="paint5_angular_203_498" cx="0" cy="0" r="1" gradientUnits="userSpaceOnUse" gradientTransform="translate(718.381 732.721) scale(508.767 235.041)">
<stop offset="0.458333" stop-color="white"/>
<stop offset="0.717799" stop-color="white" stop-opacity="0"/>
<stop offset="0.782437" stop-color="white" stop-opacity="0"/>
<stop offset="1" stop-color="white" stop-opacity="0.4"/>
</radialGradient>
<radialGradient id="paint6_angular_203_498" cx="0" cy="0" r="1" gradientUnits="userSpaceOnUse" gradientTransform="translate(697.095 718.992) scale(884.489 413.596)">
<stop offset="0.458333" stop-color="white"/>
<stop offset="0.717799" stop-color="white" stop-opacity="0"/>
<stop offset="0.782437" stop-color="white" stop-opacity="0"/>
<stop offset="1" stop-color="white" stop-opacity="0.4"/>
</radialGradient>
<radialGradient id="paint7_angular_203_498" cx="0" cy="0" r="1" gradientUnits="userSpaceOnUse" gradientTransform="translate(697.095 721.772) scale(884.489 413.596)">
<stop offset="0.458333" stop-color="white"/>
<stop offset="0.717799" stop-color="white" stop-opacity="0"/>
<stop offset="0.782437" stop-color="white" stop-opacity="0"/>
<stop offset="1" stop-color="white" stop-opacity="0.4"/>
</radialGradient>
<radialGradient id="paint8_angular_203_498" cx="0" cy="0" r="1" gradientUnits="userSpaceOnUse" gradientTransform="translate(697.095 730.058) scale(884.489 412.049)">
<stop offset="0.458333" stop-color="white"/>
<stop offset="0.717799" stop-color="white" stop-opacity="0"/>
<stop offset="0.782437" stop-color="white" stop-opacity="0"/>
<stop offset="1" stop-color="white" stop-opacity="0.4"/>
</radialGradient>
<radialGradient id="paint9_angular_203_498" cx="0" cy="0" r="1" gradientUnits="userSpaceOnUse" gradientTransform="translate(697.095 742.266) scale(884.489 410.79)">
<stop offset="0.458333" stop-color="white"/>
<stop offset="0.717799" stop-color="white" stop-opacity="0"/>
<stop offset="0.782437" stop-color="white" stop-opacity="0"/>
<stop offset="1" stop-color="white" stop-opacity="0.4"/>
</radialGradient>
<radialGradient id="paint10_angular_203_498" cx="0" cy="0" r="1" gradientUnits="userSpaceOnUse" gradientTransform="translate(697.095 759.432) scale(884.489 408.618)">
<stop offset="0.458333" stop-color="white"/>
<stop offset="0.717799" stop-color="white" stop-opacity="0"/>
<stop offset="0.782437" stop-color="white" stop-opacity="0"/>
<stop offset="1" stop-color="white" stop-opacity="0.4"/>
</radialGradient>
</defs>
</svg>
