<svg width="630" height="736" viewBox="0 0 630 736" fill="none" xmlns="http://www.w3.org/2000/svg">
<rect y="106" width="630" height="630" rx="315" fill="url(#paint0_linear_1_1407)"/>
<g clip-path="url(#clip0_1_1407)">
<path fill-rule="evenodd" clip-rule="evenodd" d="M190.761 1051.43C188.292 911.104 135.221 615.296 127.597 539.109C119.975 462.922 147.09 437.12 173.089 449.69C199.088 462.264 206.866 638.046 206.866 638.046C206.866 638.046 208.657 672.45 215.442 711.627C239.973 853.256 222.755 1053.45 222.755 1053.45C222.755 1053.45 218 1066.49 203.609 1064.75C189.22 1063.01 190.761 1051.43 190.761 1051.43Z" fill="#FFC999"/>
<path fill-rule="evenodd" clip-rule="evenodd" d="M38.5734 1045.31C41.0423 904.978 94.1133 609.17 101.735 532.983C109.36 456.797 82.242 430.994 56.2458 443.564C30.2468 456.138 22.4662 631.92 22.4662 631.92C22.4662 631.92 20.6777 666.324 13.8922 705.501C-10.6383 847.133 6.57964 1047.32 6.57964 1047.32C6.57964 1047.32 11.3346 1060.36 25.7258 1058.63C40.1117 1056.89 38.5734 1045.31 38.5734 1045.31Z" fill="#FFC999"/>
<path fill-rule="evenodd" clip-rule="evenodd" d="M54.3134 413.699L56.0454 403.197C56.0454 403.197 102.828 403.237 158.653 403.581C159.035 408.939 160.568 415.45 160.568 415.45C160.568 415.45 120.232 428.978 54.3134 413.699Z" fill="#002AB2"/>
<path fill-rule="evenodd" clip-rule="evenodd" d="M167.746 338.61L163.817 348.649C163.817 348.649 162.738 398.248 162.738 402.178C109.135 410.854 54.8534 401.497 54.8534 401.497L55.117 383.139L50.752 326.824L167.746 338.61Z" fill="white"/>
<path d="M166.933 337.856C167.109 337.407 167.615 337.186 168.064 337.361C168.463 337.517 168.682 337.935 168.603 338.341L168.559 338.492L164.684 348.389L163.121 401.261C163.107 401.943 163.1 402.422 163.1 402.686C163.1 403.106 162.8 403.467 162.387 403.544C131.466 409.281 99.8248 408.964 70.7192 404.983C66.5683 404.416 62.8002 403.811 59.4597 403.203L58.3621 403C57.3094 402.803 56.3654 402.617 55.5346 402.446L53.894 402.095C53.5319 402.011 53.2683 401.71 53.2238 401.353L53.2185 401.196L54.2459 382.652C54.2725 382.171 54.6843 381.802 55.1655 381.829C55.5933 381.853 55.932 382.181 55.9833 382.591L55.9886 382.749L55.0008 400.55L55.4081 400.637C56.0284 400.767 56.7216 400.908 57.4854 401.056L58.6839 401.285C62.2617 401.956 66.3729 402.627 70.9557 403.254C99.2622 407.125 129.987 407.512 160.064 402.191L161.361 401.954L161.503 396.122L162.22 371.637L162.945 348.186L163.004 347.896L166.933 337.856Z" fill="black"/>
<path fill-rule="evenodd" clip-rule="evenodd" d="M221.101 153.563C221.101 153.563 247.504 149.733 254.48 177.641C280.062 186.944 273.086 214.85 273.086 214.85C273.086 214.85 285.933 236.774 260.41 248.005C258.366 270.468 232.844 266.382 232.844 266.382C232.844 266.382 226.717 283.74 207.318 276.594C186.389 292.874 161.452 272.993 161.452 272.993C161.452 272.993 138.196 282.296 128.896 272.993C107.964 279.97 84.7058 254.387 84.7058 254.387C84.7058 254.387 71.6404 257.706 62.3376 236.774C38.0384 240.545 11.4908 209.576 33.7488 180.618C19.1477 157.505 35.79 143.862 35.79 143.862C35.79 143.862 31.1965 90.7692 67.9532 83.6233C86.8386 55.0344 127.681 78.0077 127.681 78.0077C127.681 78.0077 154.736 72.3922 164.437 95.8765C194.669 100.527 193.252 117.145 195.579 131.1C222.632 132.631 221.101 153.563 221.101 153.563Z" fill="black"/>
<path fill-rule="evenodd" clip-rule="evenodd" d="M137.211 127.638C116.01 131.358 109.569 115.318 109.569 115.318C109.569 115.318 100.823 92.7266 98.5826 106.596C97.3912 113.968 85.996 104.186 80.7569 112.045C77.231 117.332 86.0471 124.148 74.59 138.246C67.9524 146.413 94.1316 152.933 77.9814 167.988C77.9814 167.988 89.4653 186.365 69.7382 192.36L65.3759 213.757L110.838 213.687L109.375 189.047C140.006 189.047 141.501 146.946 137.211 127.638Z" fill="#FFC999"/>
<path d="M98.1298 150.048C98.6607 149.517 99.5215 149.517 100.052 150.048L100.33 150.303C100.457 150.413 100.619 150.547 100.813 150.701C101.477 151.226 102.258 151.754 103.145 152.247C106.153 153.92 109.586 154.786 113.365 154.42C114.112 154.347 114.777 154.894 114.849 155.642C114.922 156.389 114.374 157.053 113.627 157.126C109.255 157.55 105.285 156.549 101.824 154.623C100.068 153.647 98.8196 152.661 98.1298 151.971C97.5989 151.44 97.5989 150.579 98.1298 150.048Z" fill="#F5222D"/>
<path d="M114.856 128.796C115.393 128.835 115.811 129.259 115.858 129.778L115.86 129.967C115.834 130.685 115.975 131.89 116.449 133.528C117.212 136.166 118.637 139.128 120.893 142.36C121.248 142.868 121.105 143.57 120.58 143.899L119.173 144.773C117.351 145.893 115.744 146.834 114.348 147.609L113.834 147.893C113.444 148.106 113.089 148.296 112.767 148.465L111.668 149.02C111.641 149.033 111.617 149.044 111.597 149.053C111.053 149.304 110.409 149.067 110.159 148.523C109.908 147.98 110.145 147.336 110.688 147.085L111.192 146.838L112.085 146.374C112.306 146.256 112.543 146.129 112.794 145.991C114.089 145.283 115.589 144.416 117.297 143.379L118.474 142.655L118.205 142.244C116.474 139.558 115.281 137.035 114.542 134.708L114.367 134.13C113.877 132.437 113.693 131.098 113.689 130.158L113.698 129.8C113.74 129.203 114.259 128.754 114.856 128.796Z" fill="#DD936F"/>
<path fill-rule="evenodd" clip-rule="evenodd" d="M119.217 383.288C119.217 383.288 177.326 398.698 203.833 380.224C232.645 360.145 197.362 283.737 188.135 263.83C180.214 246.736 162.945 235.661 147.228 233.041C131.764 230.465 119.946 229.548 119.946 229.548L116.55 216.31C116.055 214.382 114.317 213.032 112.327 213.032H65.9986C63.8282 213.032 61.9913 214.629 61.682 216.775L59.8935 229.314C59.8935 229.314 20.8964 227.851 2.4387 244.942C-15.2391 261.313 -10.1318 298.053 4.69783 332.062C19.5248 366.072 32.0146 393.061 56.8087 395.541C102.645 400.124 174.295 360.217 174.295 360.217C174.295 360.217 186.516 353.671 197.868 355.417C195.248 339.7 186.516 328.35 161.197 334.899L70.8342 353.671" fill="white"/>
<path fill-rule="evenodd" clip-rule="evenodd" d="M174.73 307.615C174.73 307.615 179.097 322.02 170.039 333.698L171.021 348.758L106.848 383.466C106.848 383.466 176.69 399.568 204.599 383.288C225.531 371.078 219.514 336.349 203.45 301.351C203.45 301.351 190.815 297.524 174.73 307.615Z" fill="#FFC999"/>
<path fill-rule="evenodd" clip-rule="evenodd" d="M49.0055 311.544L66.9038 350.396L138.489 330.962C159.881 325.285 182.588 333.372 188.263 350.396C177.787 351.706 157.923 356.289 157.923 356.289C157.923 356.289 89.1698 399.18 54.4624 397.545C29.5715 396.37 19.8868 367.38 5.05716 333.372C5.05716 333.372 14.083 314.164 49.0055 311.544Z" fill="#FFC999"/>
<path d="M165.563 270.072C166.045 270.072 166.436 270.463 166.436 270.945L166.422 272.161L166.395 273.366C166.378 273.993 166.355 274.655 166.326 275.347C166.212 278.094 166.022 280.841 165.739 283.464L165.605 284.604L166.012 285.024C168.759 287.932 170.95 291.022 172.618 294.273L173.025 295.089C177.947 305.29 177.625 316.158 174.139 326.415C173.579 328.06 172.98 329.546 172.379 330.848L172.074 331.494L171.564 332.49C171.328 332.91 170.796 333.06 170.375 332.824C169.955 332.588 169.806 332.056 170.041 331.636L170.291 331.163C170.428 330.893 170.598 330.543 170.794 330.118C171.37 328.869 171.947 327.439 172.486 325.854C175.838 315.991 176.147 305.576 171.453 295.847C169.692 292.198 167.25 288.747 164.071 285.527C163.883 285.337 163.793 285.071 163.826 284.806C164.204 281.777 164.447 278.526 164.583 275.274L164.65 273.318L164.689 271.221L164.691 270.945C164.691 270.463 165.081 270.072 165.563 270.072Z" fill="black"/>
<path d="M101.316 229.095C101.798 229.095 102.189 229.486 102.189 229.968C102.189 230.396 101.88 230.753 101.473 230.826L101.316 230.841H59.6003C59.1183 230.841 58.7276 230.45 58.7276 229.968C58.7276 229.539 59.0363 229.183 59.4434 229.109L59.6003 229.095H101.316Z" fill="black"/>
<path d="M120.922 229.22C121.062 228.675 121.618 228.347 122.163 228.487C122.654 228.613 122.969 229.076 122.924 229.564L122.896 229.728L109.145 283.205C108.959 283.929 108.099 284.196 107.537 283.76L107.413 283.647L57.4297 230.17C57.0453 229.759 57.0671 229.114 57.4783 228.729C57.8439 228.388 58.3942 228.367 58.7819 228.655L58.919 228.778L107.632 280.898L120.922 229.22Z" fill="black"/>
<path fill-rule="evenodd" clip-rule="evenodd" d="M122.632 288.906C127.258 296.708 125.171 306.492 117.977 310.76C110.777 315.029 101.192 312.162 96.5658 304.362C91.9399 296.56 94.0242 286.776 101.221 282.508C108.421 278.24 118.003 281.104 122.632 288.906Z" fill="#464646"/>
<path fill-rule="evenodd" clip-rule="evenodd" d="M124.292 288.868C128.92 296.67 126.833 306.454 119.636 310.72C112.439 314.988 102.854 312.123 98.2284 304.321C93.6026 296.519 95.6869 286.738 102.884 282.47C110.081 278.201 119.666 281.066 124.292 288.868Z" fill="black"/>
<path fill-rule="evenodd" clip-rule="evenodd" d="M121.356 290.227C124.946 296.283 123.327 303.881 117.738 307.195C112.152 310.508 104.711 308.284 101.12 302.227C97.527 296.168 99.1434 288.573 104.732 285.259C110.321 281.943 117.762 284.17 121.356 290.227Z" fill="#C961DE"/>
<path d="M88.8962 183.934C89.1823 183.408 89.8405 183.213 90.3663 183.499C96.2946 186.725 102.438 188.345 108.603 188.429C109.202 188.437 109.68 188.929 109.672 189.528C109.664 190.126 109.172 190.605 108.574 190.597C102.055 190.508 95.5665 188.796 89.3304 185.404C88.8046 185.118 88.6102 184.459 88.8962 183.934Z" fill="#DD936F"/>
<path fill-rule="evenodd" clip-rule="evenodd" d="M98.4137 341.681C98.4137 341.681 72.2749 319.781 56.2108 320.929C40.9294 322.021 31.7637 334.463 34.3805 341.447C34.3805 341.447 30.8923 347.56 36.5644 349.524C35.8006 353.999 42.2391 353.671 42.2391 353.671C42.2391 353.671 41.1499 356.508 45.7327 357.162C50.3155 357.818 55.3771 348.429 67.2752 350.36L98.4137 341.681Z" fill="#FFC999"/>
<path d="M55.5564 319.275C48.3984 319.786 40.7168 324.885 35.1982 331.697C32.8821 334.555 31.2863 337.371 30.837 339.433L30.7833 339.71C30.4898 341.437 31.0819 342.673 32.3513 343.078L32.431 343.099L32.3322 343.329C31.9741 344.206 31.801 345.096 31.8916 345.981L31.935 346.293C32.171 347.627 33.029 348.725 34.5117 349.495L34.8425 349.655L34.842 349.729C34.8574 351.861 36.2942 353.213 38.5101 353.821L38.979 353.937C39.4474 354.04 39.9126 354.107 40.3581 354.146L40.4814 354.153L40.4897 354.241C40.5413 354.644 40.6719 355.052 40.9032 355.452C41.57 356.604 42.9257 357.364 45.0053 357.661C46.1633 357.827 47.3088 357.535 48.6674 356.832L49.0817 356.609C49.9249 356.137 53.1422 354.013 53.1803 353.989C57.6691 351.154 61.4699 350.035 66.5271 350.856C66.6752 350.88 66.8267 350.873 66.9719 350.836L99.3099 342.48C100.171 342.257 100.412 341.15 99.7224 340.589L98.5565 339.668L97.3718 338.756C96.7486 338.282 96.0798 337.781 95.3693 337.258C91.9868 334.767 88.3499 332.276 84.5965 329.95C80.2645 327.265 76.0548 324.975 72.0668 323.201C65.9628 320.485 60.602 319.074 56.1569 319.242L55.5564 319.275ZM71.1857 325.181C75.0749 326.912 79.2006 329.156 83.4546 331.793C87.155 334.086 90.7452 336.545 94.0839 339.003L95.6424 340.165L96.6444 340.928L66.6426 348.681L66.8745 348.717C61.4357 347.834 57.2522 348.97 52.5853 351.807L52.0228 352.156C51.9222 352.22 48.7846 354.291 48.0236 354.717C46.8561 355.37 46.0198 355.616 45.3119 355.515C43.8379 355.305 43.075 354.877 42.7793 354.366C42.6568 354.155 42.6187 353.923 42.6395 353.699L42.6765 353.486C42.9374 352.806 42.4691 352.086 41.762 352.019L41.5609 352.016C40.8459 352.036 39.935 351.964 39.0838 351.731C37.5094 351.299 36.8197 350.54 37.0609 349.133C37.1505 348.61 36.8485 348.099 36.3473 347.926C34.7863 347.385 34.1402 346.66 34.048 345.76C33.9826 345.121 34.1932 344.364 34.6002 343.592C34.8223 343.171 35.0426 342.849 35.1742 342.686C35.8254 341.879 35.0796 340.706 34.0722 340.953L33.6818 341.04C32.8127 341.203 32.7243 340.954 32.9551 339.894C33.3192 338.223 34.7605 335.681 36.8825 333.061C42.0589 326.672 49.2503 321.899 55.711 321.437C59.8474 321.141 65.1001 322.474 71.1857 325.181Z" fill="#DD936F"/>
<path d="M55.4215 326.838C56.0155 326.764 56.5572 327.185 56.6314 327.779C56.7057 328.373 56.2843 328.915 55.6903 328.989C51.5675 329.505 47.1009 331.857 42.6057 335.469C40.7847 336.932 39.0854 338.502 37.5561 340.071L36.7999 340.863L35.8842 341.87C35.7762 341.993 35.697 342.085 35.6478 342.144C35.2631 342.602 34.5794 342.662 34.1208 342.277C33.6623 341.893 33.6026 341.209 33.9873 340.75L34.5245 340.137C34.9526 339.66 35.4475 339.129 36.0035 338.558C37.5906 336.93 39.3534 335.301 41.248 333.779C46.0279 329.938 50.8228 327.413 55.4215 326.838Z" fill="#DD936F"/>
<path d="M62.6308 332.69C63.229 332.671 63.7302 333.139 63.7501 333.738C63.7699 334.336 63.3011 334.837 62.7028 334.857C62.3408 334.869 61.9754 334.893 61.6068 334.927C56.491 335.412 50.9301 338.033 45.3158 342.112C43.1032 343.719 41.0365 345.443 39.1747 347.166C38.6865 347.618 38.2391 348.046 37.8358 348.442L36.9201 349.367C36.8919 349.397 36.8677 349.423 36.8475 349.445C36.4394 349.882 35.7536 349.907 35.3157 349.498C34.8778 349.09 34.8537 348.404 35.2618 347.967L35.911 347.299L36.7486 346.476C37.0474 346.188 37.3655 345.887 37.7021 345.575C39.6234 343.797 41.7549 342.019 44.0418 340.358C49.9416 336.072 55.8279 333.297 61.4024 332.769C61.8147 332.73 62.2242 332.704 62.6308 332.69Z" fill="#DD936F"/>
<path d="M62.5972 339.582C63.1946 339.544 63.7097 339.998 63.7477 340.595C63.7857 341.192 63.3322 341.707 62.7348 341.745C60.8847 341.863 58.5859 342.658 55.9595 344.033C54.1086 345.002 52.1427 346.234 50.1124 347.667C48.2367 348.991 46.41 350.411 44.7074 351.832L43.8588 352.549L42.5314 353.715C42.0904 354.12 41.4048 354.091 41.0001 353.65C40.5953 353.209 40.6247 352.523 41.0657 352.118L41.6727 351.576L42.448 350.903C42.7227 350.668 43.0134 350.422 43.3188 350.167C45.0634 348.712 46.9351 347.256 48.8625 345.896C50.9655 344.412 53.01 343.131 54.9539 342.113C57.8256 340.609 60.39 339.722 62.5972 339.582Z" fill="#DD936F"/>
<path d="M38.6326 283.177C39.0363 283.034 39.4755 283.205 39.6816 283.564L39.7474 283.707L49.3918 310.814C49.5881 311.366 49.1961 311.95 48.6111 311.978L48.109 312.01C47.6904 312.04 47.2037 312.082 46.6545 312.136C45.0815 312.292 43.3271 312.522 41.437 312.84C36.0383 313.747 30.6411 315.174 25.6127 317.229C16.4153 320.988 9.52206 326.41 5.83706 333.761C5.62106 334.192 5.09665 334.366 4.66576 334.15C4.23488 333.934 4.06069 333.41 4.2767 332.979C8.17737 325.198 15.3976 319.518 24.9523 315.613C30.1119 313.504 35.6305 312.046 41.1477 311.119C42.7564 310.848 44.2698 310.64 45.6617 310.486L46.8941 310.36L47.3628 310.317L38.1029 284.292C37.9593 283.889 38.1307 283.449 38.4895 283.243L38.6326 283.177Z" fill="black"/>
<path d="M182.816 302.767C189.539 299.864 196.678 298.679 203.728 300.215C204.199 300.318 204.497 300.783 204.395 301.254C204.292 301.725 203.827 302.023 203.356 301.921C196.711 300.472 189.924 301.599 183.508 304.37C182.208 304.931 181.011 305.525 179.932 306.125L179.298 306.485C178.561 306.914 178.049 307.244 177.79 307.427C177.396 307.704 176.851 307.609 176.574 307.215C176.296 306.821 176.391 306.277 176.785 305.999L177.22 305.71C177.564 305.487 177.965 305.241 178.421 304.976C179.717 304.222 181.19 303.47 182.816 302.767Z" fill="black"/>
<path d="M169.639 331.815C169.875 331.265 170.512 331.01 171.062 331.246C174.91 332.895 178.456 335.54 181.685 338.904C183.657 340.958 185.391 343.156 186.876 345.355C187.266 345.932 187.618 346.48 187.932 346.989L188.475 347.902C188.58 348.083 188.657 348.223 188.707 348.318C189.024 348.912 188.727 349.633 188.115 349.849L187.956 349.892L168.196 353.692L102.971 386.43C102.489 386.671 101.914 386.52 101.608 386.098L101.516 385.947C101.274 385.466 101.425 384.89 101.848 384.584L101.999 384.492L167.358 351.689L167.639 351.593L186.04 348.053L185.774 347.627C185.667 347.458 185.555 347.285 185.439 347.109L185.08 346.568C183.66 344.466 182.001 342.364 180.121 340.405C177.079 337.236 173.761 334.761 170.209 333.238C169.658 333.003 169.403 332.365 169.639 331.815Z" fill="#DD936F"/>
<path d="M55.0777 413.172C55.2563 412.638 55.8339 412.35 56.3678 412.529L57.4639 412.875L58.4283 413.164C59.1062 413.363 59.8539 413.576 60.6687 413.8C64.1663 414.759 68.1705 415.719 72.6153 416.616C100.813 422.302 130.83 422.73 159.136 414.472C159.676 414.314 160.242 414.625 160.4 415.165C160.558 415.705 160.247 416.271 159.707 416.429C131.04 424.793 100.706 424.36 72.2122 418.614C67.7203 417.708 63.6709 416.737 60.1293 415.766L58.9387 415.433C58.3689 415.272 57.8377 415.116 57.3461 414.969L55.9827 414.547C55.8752 414.513 55.7878 414.484 55.7209 414.462C55.187 414.283 54.8991 413.706 55.0777 413.172Z" fill="#253368"/>
<path d="M100.62 128.655C101.342 128.655 101.928 129.24 101.928 129.963C101.928 134.99 98.1429 139.108 93.4148 139.108C88.6893 139.108 84.9067 134.99 84.9067 129.963C84.9067 129.24 85.4925 128.655 86.2152 128.655C86.9378 128.655 87.5236 129.24 87.5236 129.963C87.5236 133.592 90.1866 136.492 93.4148 136.492C96.6461 136.492 99.3114 133.592 99.3114 129.963C99.3114 129.24 99.8972 128.655 100.62 128.655Z" fill="#253368"/>
<path d="M133.626 129.554C134.312 129.554 134.867 130.11 134.867 130.795C134.867 135.762 131.467 139.874 127.145 139.874C122.822 139.874 119.422 135.762 119.422 130.795C119.422 130.11 119.978 129.554 120.663 129.554C121.349 129.554 121.904 130.11 121.904 130.795C121.904 134.484 124.308 137.391 127.145 137.391C129.981 137.391 132.385 134.484 132.385 130.795C132.385 130.11 132.941 129.554 133.626 129.554Z" fill="#253368"/>
<path d="M85.8378 114.564C90.8321 112.456 96.12 112.668 101.119 114.273C102.555 114.735 103.628 115.201 104.243 115.525C104.882 115.863 105.127 116.654 104.79 117.293C104.452 117.932 103.661 118.177 103.022 117.84L102.693 117.68C102.592 117.633 102.471 117.579 102.333 117.519C101.744 117.263 101.068 117.005 100.318 116.765C95.8632 115.334 91.1872 115.147 86.8554 116.975C86.0646 117.309 85.2941 117.708 84.5449 118.177C83.9321 118.56 83.1249 118.373 82.7419 117.761C82.3589 117.148 82.5451 116.341 83.1579 115.958C84.0255 115.415 84.9196 114.952 85.8378 114.564Z" fill="#253368"/>
<path fill-rule="evenodd" clip-rule="evenodd" d="M156.358 413.153C179.328 414.683 235.487 559.09 256.672 610.714C254.049 621.192 237.528 639.814 237.528 639.814C237.528 639.814 239.413 648.108 240.573 653.092C221.176 669.428 183.4 678.618 183.4 678.618V685.764C123.159 714.352 41.7493 688.566 41.7493 688.566C41.7493 688.566 40.2164 687.036 41.2384 681.42C13.736 681.42 -45.5449 647.216 -45.5449 647.216L-37.3771 629.861L-61.8806 605.354C-61.8806 605.354 12.9991 477.296 25.7552 449.143C39.9635 417.786 55.6619 411.964 55.6619 411.964C55.6619 411.964 115.596 410.433 156.358 413.153Z" fill="#002AB2"/>
<path d="M27.0449 493.627C27.2871 493.119 27.8954 492.904 28.4036 493.146C28.861 493.364 29.0814 493.878 28.9443 494.349L28.8853 494.504L-43.2449 645.873L-42.3377 646.524L-41.5684 647.062C-39.6265 648.409 -37.3379 649.91 -34.7175 651.529C-27.2232 656.156 -18.5785 660.786 -8.90195 665.107C6.63303 672.045 23.3122 677.506 40.9212 680.932C41.4738 681.039 41.8346 681.574 41.7271 682.127C41.6196 682.679 41.0845 683.04 40.5319 682.933C22.7633 679.476 5.93747 673.967 -9.73323 666.969C-19.4958 662.609 -28.2199 657.937 -35.7886 653.263C-38.1456 651.808 -40.2395 650.444 -42.0601 649.199L-42.7299 648.738C-43.1448 648.45 -43.5264 648.182 -43.8744 647.933L-44.8443 647.23C-44.9802 647.129 -45.0806 647.054 -45.145 647.005C-45.4803 646.749 -45.6185 646.318 -45.5089 645.923L-45.4466 645.756L27.0449 493.627Z" fill="black"/>
<path d="M173.596 480.355C174.068 480.17 174.594 480.361 174.844 480.784L174.917 480.933L242.546 653.741C242.72 654.185 242.562 654.691 242.166 654.958L241.691 655.27C241.306 655.521 240.851 655.811 240.33 656.137L238.997 656.96C237.838 657.667 236.558 658.423 235.166 659.219C229.601 662.403 223.368 665.586 216.615 668.557C205.901 673.27 194.901 676.995 183.869 679.36C183.319 679.478 182.777 679.127 182.659 678.577C182.541 678.026 182.891 677.484 183.442 677.366C194.328 675.033 205.199 671.352 215.794 666.691C222.479 663.751 228.648 660.6 234.154 657.45C236.079 656.348 237.784 655.326 239.248 654.409L240.345 653.711L173.019 481.676C172.834 481.204 173.025 480.678 173.447 480.428L173.596 480.355Z" fill="black"/>
<path d="M135.47 440.488C136.021 440.373 136.562 440.726 136.677 441.277L140.357 458.992C141.666 465.324 143.059 472.102 144.525 479.264L145.862 485.811C152.221 516.981 158.58 548.777 164.577 579.622L166.069 587.313C167.171 593.008 168.251 598.625 169.308 604.157L171.598 616.193C176.537 642.293 180.846 665.944 184.403 686.613C184.487 687.103 184.206 687.582 183.738 687.747C180.325 688.951 176.862 690.057 173.353 691.065C136.789 701.569 97.7992 701.233 61.0865 694.364C55.4572 693.311 50.3821 692.182 45.9436 691.053L44.4521 690.667C43.9762 690.541 43.5219 690.419 43.0895 690.301L41.3111 689.802C40.9007 689.684 40.6045 689.595 40.4264 689.54C39.9825 689.402 39.6952 688.985 39.7081 688.535L39.7293 688.364L74.9719 513.797C75.0833 513.246 75.6209 512.889 76.1727 513C76.6694 513.1 77.0082 513.546 76.9898 514.036L76.9702 514.201L41.9121 687.853L43.628 688.335C44.4811 688.568 45.4215 688.816 46.4463 689.077C50.8436 690.196 55.8762 691.315 61.4614 692.36C97.8889 699.175 136.576 699.51 172.79 689.106C175.567 688.308 178.313 687.449 181.029 686.527L182.246 686.105L180.932 678.538C177.554 659.24 173.58 637.582 169.099 613.954L168.094 608.671C166.788 601.811 165.444 594.817 164.067 587.7C158.628 559.587 152.86 530.564 147.042 501.845L141.229 473.333L134.682 441.695C134.566 441.144 134.919 440.604 135.47 440.488Z" fill="black"/>
<path d="M106.365 443.788C106.871 443.816 107.271 444.208 107.325 444.696L107.329 444.861L98.4136 613.065C98.3838 613.627 97.9039 614.059 97.3418 614.031C96.8358 614.002 96.4357 613.611 96.3824 613.123L96.3778 612.957L105.293 444.754C105.323 444.191 105.803 443.76 106.365 443.788Z" fill="black"/>
<path d="M76.5154 418.194C76.691 417.659 77.267 417.367 77.8018 417.543C78.2832 417.701 78.5672 418.183 78.4912 418.668L78.4523 418.83L44.7615 521.44C44.5859 521.975 44.0099 522.266 43.4751 522.091C42.9937 521.933 42.7097 521.45 42.7857 520.965L42.8246 520.804L76.5154 418.194Z" fill="black"/>
</g>
<defs>
<linearGradient id="paint0_linear_1_1407" x1="126" y1="164" x2="524" y2="714" gradientUnits="userSpaceOnUse">
<stop stop-color="#C961DE"/>
<stop offset="1" stop-color="#2954A3"/>
</linearGradient>
<clipPath id="clip0_1_1407">
<path d="M0 -84H630V421C630 594.97 488.97 736 315 736V736C141.03 736 0 594.97 0 421V-84Z" fill="white"/>
</clipPath>
</defs>
</svg>
