<svg width="362" height="518" viewBox="0 0 362 518" fill="none" xmlns="http://www.w3.org/2000/svg">
<mask id="mask0_1_1413" style="mask-type:alpha" maskUnits="userSpaceOnUse" x="48" y="229" width="252" height="289">
<rect x="48.7807" y="229.635" width="251.044" height="287.992" fill="url(#paint0_linear_1_1413)"/>
</mask>
<g mask="url(#mask0_1_1413)">
<g opacity="0.8">
<path d="M181.001 246.764L243.029 280.391L272.681 329.607L228.114 491.207L181 463.957L181.001 246.764Z" fill="url(#paint1_linear_1_1413)"/>
<path opacity="0.8" d="M180.999 246.764L181 358.371L235.783 326.104L243.028 280.391L180.999 246.764Z" fill="url(#paint2_linear_1_1413)" fill-opacity="0.7"/>
<g opacity="0.8">
<path d="M180.999 246.766L118.961 280.398L89.3183 329.608L133.886 491.207L180.999 463.957L180.999 246.766Z" fill="url(#paint3_linear_1_1413)" fill-opacity="0.7"/>
<path d="M180.999 246.766L118.961 280.398L89.3183 329.608L133.886 491.207L180.999 463.957L180.999 246.766Z" fill="url(#paint4_linear_1_1413)" fill-opacity="0.5"/>
</g>
<path d="M228.116 491.206L181 463.957L181 518.455L228.116 491.206Z" fill="url(#paint5_linear_1_1413)"/>
<path d="M181.001 332.579L149.803 314.536L181.001 296.494L212.198 314.536L181.001 332.579Z" fill="url(#paint6_linear_1_1413)" fill-opacity="0.5"/>
<path d="M133.884 491.206L181 518.456L181 463.957L133.884 491.206Z" fill="url(#paint7_linear_1_1413)" fill-opacity="0.8"/>
<path d="M181.001 506.971L155.73 492.356L181.001 477.741L206.272 492.356L181.001 506.971Z" fill="url(#paint8_linear_1_1413)" fill-opacity="0.6"/>
<path opacity="0.8" d="M181 246.764L180.999 358.371L126.216 326.104L118.972 280.391L181 246.764Z" fill="url(#paint9_linear_1_1413)"/>
<path d="M89.3193 329.608L118.972 280.391L126.217 326.104L89.3193 329.608Z" fill="url(#paint10_linear_1_1413)" fill-opacity="0.7"/>
<path d="M181.001 375.097L130.227 345.733L181.001 316.369L231.774 345.733L181.001 375.097Z" fill="url(#paint11_linear_1_1413)" fill-opacity="0.7"/>
<path d="M181.001 375.097L130.227 345.733L181.001 316.369L231.774 345.733L181.001 375.097Z" fill="url(#paint12_linear_1_1413)" fill-opacity="0.7"/>
<path d="M181.002 316.37L130.229 345.732L149.805 314.535L181.002 296.493L181.002 316.37Z" fill="url(#paint13_linear_1_1413)" fill-opacity="0.9"/>
<path d="M181.001 316.362L231.773 345.725L206.271 492.355L181.001 477.74L181.001 316.362Z" fill="url(#paint14_linear_1_1413)" fill-opacity="0.6"/>
<path d="M181 316.362L130.228 345.725L155.73 492.355L181 477.74L181 316.362Z" fill="url(#paint15_linear_1_1413)" fill-opacity="0.9"/>
<path d="M181.002 316.37L231.774 345.732L212.198 314.535L181.002 296.493L181.002 316.37Z" fill="url(#paint16_linear_1_1413)" fill-opacity="0.9"/>
<path d="M272.681 329.608L243.028 280.391L235.783 326.104L272.681 329.608Z" fill="url(#paint17_linear_1_1413)" fill-opacity="0.7"/>
</g>
</g>
<g filter="url(#filter0_f_1_1413)">
<ellipse cx="181" cy="274.333" rx="173" ry="75.5522" fill="url(#paint18_radial_1_1413)" fill-opacity="0.6"/>
</g>
<g filter="url(#filter1_f_1_1413)">
<ellipse cx="181" cy="274.333" rx="122.884" ry="53.6655" fill="url(#paint19_radial_1_1413)" fill-opacity="0.6"/>
</g>
<path d="M180.999 212.097L271.043 264.173L180.999 316.249L90.9546 264.173L180.999 212.097Z" fill="url(#paint20_linear_1_1413)" fill-opacity="0.5"/>
<path d="M180.999 281.625L118.971 247.999L89.3185 198.782L133.886 37.1826L181 64.4323L180.999 281.625Z" fill="url(#paint21_linear_1_1413)"/>
<path opacity="0.8" d="M181 281.625L180.999 170.018L126.217 202.285L118.972 247.998L181 281.625Z" fill="url(#paint22_linear_1_1413)" fill-opacity="0.7"/>
<g opacity="0.8">
<path d="M181 281.624L243.039 247.991L272.681 198.782L228.114 37.1826L181 64.4323L181 281.624Z" fill="url(#paint23_linear_1_1413)" fill-opacity="0.7"/>
<path d="M181 281.624L243.039 247.991L272.681 198.782L228.114 37.1826L181 64.4323L181 281.624Z" fill="url(#paint24_linear_1_1413)" fill-opacity="0.5"/>
</g>
<path d="M133.884 37.1826L181 64.4316L181 9.93354L133.884 37.1826Z" fill="url(#paint25_linear_1_1413)"/>
<path d="M180.999 195.81L212.196 213.853L180.999 231.895L149.802 213.853L180.999 195.81Z" fill="url(#paint26_linear_1_1413)" fill-opacity="0.5"/>
<path d="M228.116 37.1826L180.999 9.93354L180.999 64.4316L228.116 37.1826Z" fill="url(#paint27_linear_1_1413)" fill-opacity="0.8"/>
<path d="M180.999 21.4183L206.27 36.0335L180.999 50.6487L155.728 36.0335L180.999 21.4183Z" fill="url(#paint28_linear_1_1413)" fill-opacity="0.6"/>
<path opacity="0.8" d="M181.001 281.625L181.002 170.018L235.784 202.285L243.029 247.998L181.001 281.625Z" fill="url(#paint29_linear_1_1413)"/>
<path d="M272.681 198.781L243.029 247.998L235.784 202.285L272.681 198.781Z" fill="url(#paint30_linear_1_1413)" fill-opacity="0.7"/>
<path d="M180.999 153.292L231.773 182.656L180.999 212.02L130.226 182.656L180.999 153.292Z" fill="url(#paint31_linear_1_1413)" fill-opacity="0.7"/>
<path d="M180.999 153.292L231.773 182.656L180.999 212.02L130.226 182.656L180.999 153.292Z" fill="url(#paint32_linear_1_1413)" fill-opacity="0.7"/>
<path d="M180.998 212.019L231.771 182.656L212.195 213.854L180.998 231.896V212.019Z" fill="url(#paint33_linear_1_1413)" fill-opacity="0.9"/>
<path d="M180.999 212.027L130.227 182.664L155.729 36.0334L180.999 50.649L180.999 212.027Z" fill="url(#paint34_linear_1_1413)" fill-opacity="0.6"/>
<path d="M181 212.027L231.772 182.664L206.269 36.0334L181 50.649L181 212.027Z" fill="url(#paint35_linear_1_1413)" fill-opacity="0.9"/>
<path d="M180.998 212.019L130.226 182.656L149.802 213.854L180.998 231.896V212.019Z" fill="url(#paint36_linear_1_1413)" fill-opacity="0.9"/>
<path d="M89.3195 198.781L118.972 247.998L126.217 202.285L89.3195 198.781Z" fill="url(#paint37_linear_1_1413)" fill-opacity="0.7"/>
<defs>
<filter id="filter0_f_1_1413" x="0.591838" y="191.373" width="360.816" height="165.921" filterUnits="userSpaceOnUse" color-interpolation-filters="sRGB">
<feFlood flood-opacity="0" result="BackgroundImageFix"/>
<feBlend mode="normal" in="SourceGraphic" in2="BackgroundImageFix" result="shape"/>
<feGaussianBlur stdDeviation="3.70408" result="effect1_foregroundBlur_1_1413"/>
</filter>
<filter id="filter1_f_1_1413" x="50.7085" y="213.259" width="260.584" height="122.147" filterUnits="userSpaceOnUse" color-interpolation-filters="sRGB">
<feFlood flood-opacity="0" result="BackgroundImageFix"/>
<feBlend mode="normal" in="SourceGraphic" in2="BackgroundImageFix" result="shape"/>
<feGaussianBlur stdDeviation="3.70408" result="effect1_foregroundBlur_1_1413"/>
</filter>
<linearGradient id="paint0_linear_1_1413" x1="174.303" y1="115.877" x2="174.303" y2="427.172" gradientUnits="userSpaceOnUse">
<stop/>
<stop offset="1" stop-opacity="0"/>
</linearGradient>
<linearGradient id="paint1_linear_1_1413" x1="0.541271" y1="508.309" x2="-12.682" y2="325.577" gradientUnits="userSpaceOnUse">
<stop stop-color="#3D79ED"/>
<stop offset="0.265625" stop-color="#3458C1" stop-opacity="0.7"/>
<stop offset="0.618879" stop-color="#3753B8" stop-opacity="0.7"/>
<stop offset="0.895833" stop-color="#5BB0FF" stop-opacity="0.9"/>
<stop offset="1" stop-color="#5BB0FF" stop-opacity="0.6"/>
</linearGradient>
<linearGradient id="paint2_linear_1_1413" x1="188.336" y1="261.493" x2="220.246" y2="332.262" gradientUnits="userSpaceOnUse">
<stop offset="0.046875" stop-color="white"/>
<stop offset="0.427083" stop-color="#DFF4FF"/>
<stop offset="0.994792" stop-color="#0E42C8"/>
</linearGradient>
<linearGradient id="paint3_linear_1_1413" x1="89.3185" y1="240.031" x2="195.514" y2="321.055" gradientUnits="userSpaceOnUse">
<stop offset="0.280479" stop-color="white"/>
<stop offset="0.469567" stop-color="#FF79DA"/>
<stop offset="0.692708" stop-color="#3D3AE3" stop-opacity="0.9"/>
</linearGradient>
<linearGradient id="paint4_linear_1_1413" x1="89.3185" y1="251.358" x2="194.298" y2="352.112" gradientUnits="userSpaceOnUse">
<stop offset="0.161458" stop-color="white"/>
<stop offset="1" stop-color="white" stop-opacity="0"/>
</linearGradient>
<linearGradient id="paint5_linear_1_1413" x1="180.884" y1="517.55" x2="205.625" y2="477.01" gradientUnits="userSpaceOnUse">
<stop stop-color="#1AD6FF"/>
<stop offset="1" stop-color="#496BE4" stop-opacity="0.6"/>
<stop offset="1" stop-color="#1F3CA3"/>
</linearGradient>
<linearGradient id="paint6_linear_1_1413" x1="163.095" y1="304.358" x2="206.026" y2="314.536" gradientUnits="userSpaceOnUse">
<stop stop-color="#81FF6C"/>
<stop offset="1" stop-color="#31F3FF"/>
</linearGradient>
<linearGradient id="paint7_linear_1_1413" x1="133.884" y1="494.001" x2="178.797" y2="498.174" gradientUnits="userSpaceOnUse">
<stop stop-color="#FF79C9"/>
<stop offset="1" stop-color="#1F3CA3"/>
</linearGradient>
<linearGradient id="paint8_linear_1_1413" x1="160.614" y1="488.933" x2="190.422" y2="492.356" gradientUnits="userSpaceOnUse">
<stop stop-color="#52FF6E"/>
<stop offset="1" stop-color="#31FFFF"/>
</linearGradient>
<linearGradient id="paint9_linear_1_1413" x1="131.103" y1="264.473" x2="154.305" y2="346.818" gradientUnits="userSpaceOnUse">
<stop offset="0.103809" stop-color="white"/>
<stop offset="0.436548" stop-color="#FFAACE" stop-opacity="0.8"/>
<stop offset="0.71875" stop-color="#6F97FF" stop-opacity="0.8"/>
</linearGradient>
<linearGradient id="paint10_linear_1_1413" x1="107.768" y1="293.09" x2="126.217" y2="329.608" gradientUnits="userSpaceOnUse">
<stop stop-color="white"/>
<stop offset="0.591466" stop-color="#FF94D4"/>
<stop offset="1" stop-color="#C994FF"/>
</linearGradient>
<linearGradient id="paint11_linear_1_1413" x1="151.859" y1="329.168" x2="221.729" y2="345.733" gradientUnits="userSpaceOnUse">
<stop stop-color="#81FF6C"/>
<stop offset="1" stop-color="#31F3FF"/>
</linearGradient>
<linearGradient id="paint12_linear_1_1413" x1="181.001" y1="318.477" x2="181.001" y2="376.437" gradientUnits="userSpaceOnUse">
<stop stop-color="white"/>
<stop offset="1" stop-color="white" stop-opacity="0"/>
</linearGradient>
<linearGradient id="paint13_linear_1_1413" x1="127.753" y1="345.732" x2="179.716" y2="298.814" gradientUnits="userSpaceOnUse">
<stop offset="0.149863" stop-color="white"/>
<stop offset="0.300261" stop-color="#8CFF31"/>
<stop offset="0.449118" stop-color="#45C3EB"/>
<stop offset="1" stop-color="#72E6FF"/>
</linearGradient>
<linearGradient id="paint14_linear_1_1413" x1="203.67" y1="316.362" x2="284.208" y2="372.796" gradientUnits="userSpaceOnUse">
<stop stop-color="#6CFFED"/>
<stop offset="1" stop-color="#197F9F"/>
</linearGradient>
<linearGradient id="paint15_linear_1_1413" x1="3.56073" y1="382.344" x2="87.6859" y2="470.428" gradientUnits="userSpaceOnUse">
<stop offset="0.464598" stop-color="white"/>
<stop offset="0.790313" stop-color="#6DF390"/>
<stop offset="1" stop-color="#21CAFF" stop-opacity="0.9"/>
</linearGradient>
<linearGradient id="paint16_linear_1_1413" x1="231.774" y1="345.732" x2="182.286" y2="298.882" gradientUnits="userSpaceOnUse">
<stop offset="0.125" stop-color="white"/>
<stop offset="0.297772" stop-color="#8CFF31"/>
<stop offset="0.447917" stop-color="#5BF5FF"/>
</linearGradient>
<linearGradient id="paint17_linear_1_1413" x1="241.098" y1="276.397" x2="248.252" y2="329.608" gradientUnits="userSpaceOnUse">
<stop stop-color="#DFF4FF"/>
<stop offset="0.994792" stop-color="#0E42C8"/>
</linearGradient>
<radialGradient id="paint18_radial_1_1413" cx="0" cy="0" r="1" gradientUnits="userSpaceOnUse" gradientTransform="translate(181 274.333) rotate(90) scale(75.5522 173)">
<stop stop-color="#739AFF"/>
<stop offset="1" stop-color="#6978FF" stop-opacity="0"/>
</radialGradient>
<radialGradient id="paint19_radial_1_1413" cx="0" cy="0" r="1" gradientUnits="userSpaceOnUse" gradientTransform="translate(181 274.333) rotate(90) scale(53.6655 122.884)">
<stop stop-color="#739AFF"/>
<stop offset="1" stop-color="#6978FF" stop-opacity="0"/>
</radialGradient>
<linearGradient id="paint20_linear_1_1413" x1="226.021" y1="219.151" x2="135.977" y2="309.195" gradientUnits="userSpaceOnUse">
<stop stop-color="#6C7BFF"/>
<stop offset="1" stop-color="#31B5FF"/>
</linearGradient>
<linearGradient id="paint21_linear_1_1413" x1="361.459" y1="20.0802" x2="374.682" y2="202.812" gradientUnits="userSpaceOnUse">
<stop stop-color="#3D79ED"/>
<stop offset="0.265625" stop-color="#3458C1" stop-opacity="0.7"/>
<stop offset="0.618879" stop-color="#3753B8" stop-opacity="0.7"/>
<stop offset="0.895833" stop-color="#5BB0FF" stop-opacity="0.9"/>
<stop offset="1" stop-color="#5BB0FF" stop-opacity="0.6"/>
</linearGradient>
<linearGradient id="paint22_linear_1_1413" x1="173.664" y1="266.896" x2="141.754" y2="196.127" gradientUnits="userSpaceOnUse">
<stop offset="0.046875" stop-color="white"/>
<stop offset="0.427083" stop-color="#DFF4FF"/>
<stop offset="0.994792" stop-color="#0E42C8"/>
</linearGradient>
<linearGradient id="paint23_linear_1_1413" x1="272.681" y1="288.359" x2="166.486" y2="207.335" gradientUnits="userSpaceOnUse">
<stop offset="0.280479" stop-color="white"/>
<stop offset="0.469567" stop-color="#FF79DA"/>
<stop offset="0.692708" stop-color="#3D3AE3" stop-opacity="0.9"/>
</linearGradient>
<linearGradient id="paint24_linear_1_1413" x1="272.681" y1="277.031" x2="167.702" y2="176.278" gradientUnits="userSpaceOnUse">
<stop offset="0.161458" stop-color="white"/>
<stop offset="1" stop-color="white" stop-opacity="0"/>
</linearGradient>
<linearGradient id="paint25_linear_1_1413" x1="181.116" y1="10.8394" x2="156.375" y2="51.3792" gradientUnits="userSpaceOnUse">
<stop stop-color="#1AD6FF"/>
<stop offset="1" stop-color="#496BE4" stop-opacity="0.6"/>
<stop offset="1" stop-color="#1F3CA3"/>
</linearGradient>
<linearGradient id="paint26_linear_1_1413" x1="198.905" y1="224.031" x2="155.974" y2="213.853" gradientUnits="userSpaceOnUse">
<stop stop-color="#81FF6C"/>
<stop offset="1" stop-color="#31F3FF"/>
</linearGradient>
<linearGradient id="paint27_linear_1_1413" x1="228.116" y1="34.3883" x2="183.203" y2="30.2151" gradientUnits="userSpaceOnUse">
<stop stop-color="#FF79C9"/>
<stop offset="1" stop-color="#1F3CA3"/>
</linearGradient>
<linearGradient id="paint28_linear_1_1413" x1="201.386" y1="39.4562" x2="171.577" y2="36.0335" gradientUnits="userSpaceOnUse">
<stop stop-color="#52FF6E"/>
<stop offset="1" stop-color="#31FFFF"/>
</linearGradient>
<linearGradient id="paint29_linear_1_1413" x1="230.897" y1="263.915" x2="207.696" y2="181.57" gradientUnits="userSpaceOnUse">
<stop offset="0.103809" stop-color="white"/>
<stop offset="0.436548" stop-color="#FFAACE" stop-opacity="0.8"/>
<stop offset="0.71875" stop-color="#6F97FF" stop-opacity="0.8"/>
</linearGradient>
<linearGradient id="paint30_linear_1_1413" x1="254.233" y1="235.299" x2="235.784" y2="198.781" gradientUnits="userSpaceOnUse">
<stop stop-color="white"/>
<stop offset="0.591466" stop-color="#FF94D4"/>
<stop offset="1" stop-color="#C994FF"/>
</linearGradient>
<linearGradient id="paint31_linear_1_1413" x1="210.141" y1="199.221" x2="140.271" y2="182.656" gradientUnits="userSpaceOnUse">
<stop stop-color="#81FF6C"/>
<stop offset="1" stop-color="#31F3FF"/>
</linearGradient>
<linearGradient id="paint32_linear_1_1413" x1="180.999" y1="209.912" x2="180.999" y2="151.951" gradientUnits="userSpaceOnUse">
<stop stop-color="white"/>
<stop offset="1" stop-color="white" stop-opacity="0"/>
</linearGradient>
<linearGradient id="paint33_linear_1_1413" x1="234.247" y1="182.656" x2="182.284" y2="229.575" gradientUnits="userSpaceOnUse">
<stop offset="0.149863" stop-color="white"/>
<stop offset="0.300261" stop-color="#8CFF31"/>
<stop offset="0.449118" stop-color="#45C3EB"/>
<stop offset="1" stop-color="#72E6FF"/>
</linearGradient>
<linearGradient id="paint34_linear_1_1413" x1="158.33" y1="212.027" x2="77.7918" y2="155.593" gradientUnits="userSpaceOnUse">
<stop stop-color="#6CFFED"/>
<stop offset="1" stop-color="#197F9F"/>
</linearGradient>
<linearGradient id="paint35_linear_1_1413" x1="358.439" y1="146.044" x2="274.314" y2="57.9607" gradientUnits="userSpaceOnUse">
<stop offset="0.464598" stop-color="white"/>
<stop offset="0.790313" stop-color="#6DF390"/>
<stop offset="1" stop-color="#21CAFF" stop-opacity="0.9"/>
</linearGradient>
<linearGradient id="paint36_linear_1_1413" x1="130.226" y1="182.656" x2="179.714" y2="229.507" gradientUnits="userSpaceOnUse">
<stop offset="0.125" stop-color="white"/>
<stop offset="0.297772" stop-color="#8CFF31"/>
<stop offset="0.447917" stop-color="#5BF5FF"/>
</linearGradient>
<linearGradient id="paint37_linear_1_1413" x1="120.903" y1="251.992" x2="113.749" y2="198.781" gradientUnits="userSpaceOnUse">
<stop stop-color="#DFF4FF"/>
<stop offset="0.994792" stop-color="#0E42C8"/>
</linearGradient>
</defs>
</svg>
