<svg width="520" height="639" viewBox="0 0 520 1039" fill="none" xmlns="http://www.w3.org/2000/svg">
<path fill-rule="evenodd" clip-rule="evenodd" d="M226.924 396.057C226.924 396.057 210.538 393.681 206.208 411C190.328 416.776 194.66 434.097 194.66 434.097C194.66 434.097 186.684 447.704 202.527 454.674C203.794 468.614 219.637 466.08 219.637 466.08C219.637 466.08 223.439 476.854 235.479 472.417C248.47 482.521 272.952 480.493 281.646 468.141C298.882 481.007 328.874 465.302 325.112 453.556C345.242 452.337 355.002 430.986 343.207 412.85C352.267 398.504 341.938 390.037 341.938 390.037C341.938 390.037 344.79 357.084 321.978 352.649C310.254 334.905 284.907 349.163 284.907 349.163C284.907 349.163 268.114 345.678 262.094 360.252C243.329 363.139 244.21 373.455 242.766 382.115C225.973 383.066 226.924 396.057 226.924 396.057Z" fill="#253368"/>
<path fill-rule="evenodd" clip-rule="evenodd" d="M278.992 379.967C292.148 382.276 296.148 372.321 296.148 372.321C296.148 372.321 301.576 358.299 302.968 366.907C303.706 371.482 310.778 365.411 314.03 370.288C316.219 373.57 310.748 377.8 317.858 386.552C321.979 391.621 305.727 395.666 315.753 405.011C315.753 405.011 308.625 416.416 320.869 420.137L322.166 433.512C322.922 441.295 316.797 448.032 308.977 448.02C301.521 448.008 295.547 441.84 295.772 434.387L296.266 418.08C277.257 418.08 276.329 391.951 278.992 379.967Z" fill="#FFC999"/>
<path d="M302.053 393.876C302.382 393.546 302.917 393.546 303.246 393.876C303.576 394.205 303.576 394.74 303.247 395.069C302.819 395.498 302.044 396.11 300.954 396.716C298.806 397.911 296.342 398.533 293.628 398.27C293.164 398.225 292.824 397.812 292.869 397.348C292.914 396.884 293.327 396.544 293.791 396.589C296.136 396.817 298.267 396.279 300.133 395.241C300.684 394.934 301.169 394.607 301.581 394.281L301.794 394.107C301.918 394.003 302.005 393.924 302.053 393.876Z" fill="#F5222D"/>
<path d="M292.318 381.529L292.317 381.302C292.343 381.014 292.575 380.779 292.872 380.758C293.17 380.737 293.432 380.937 293.498 381.218L293.515 381.34L293.516 381.366C293.536 381.944 293.432 382.826 293.1 383.974C292.656 385.511 291.886 387.192 290.726 388.993L290.516 389.309L290.851 389.517L291.662 390.01C292.448 390.483 293.16 390.895 293.797 391.249L294.11 391.421C294.423 391.593 294.698 391.739 294.936 391.861L295.422 392.102C295.722 392.241 295.854 392.598 295.715 392.899C295.576 393.199 295.22 393.331 294.919 393.192L294.664 393.068L294.196 392.829C294.063 392.759 293.921 392.684 293.769 392.602L293.534 392.474C292.389 391.848 290.997 391.03 289.351 389.998C289.061 389.816 288.982 389.428 289.178 389.146C290.583 387.133 291.472 385.286 291.948 383.641C292.219 382.702 292.316 381.99 292.318 381.529Z" fill="#DD936F"/>
<path d="M310.644 380.599C311.092 380.599 311.455 380.962 311.455 381.41C311.455 384.53 309.105 387.086 306.172 387.086C303.24 387.086 300.891 384.53 300.891 381.41C300.891 380.962 301.254 380.599 301.702 380.599C302.15 380.599 302.514 380.962 302.514 381.41C302.514 383.663 304.168 385.463 306.172 385.463C308.177 385.463 309.833 383.662 309.833 381.41C309.833 380.962 310.196 380.599 310.644 380.599Z" fill="#253368"/>
<path d="M289.264 381.156C289.689 381.156 290.034 381.501 290.034 381.926C290.034 385.009 287.923 387.561 285.241 387.561C282.557 387.561 280.447 385.009 280.447 381.926C280.447 381.501 280.792 381.156 281.218 381.156C281.643 381.156 281.988 381.501 281.988 381.926C281.988 384.216 283.48 386.02 285.241 386.02C287 386.02 288.493 384.215 288.493 381.926C288.493 381.501 288.838 381.156 289.264 381.156Z" fill="#253368"/>
<path d="M301.393 371.673C304.495 370.676 307.775 370.545 310.874 371.851C311.445 372.092 312 372.38 312.54 372.717C312.92 372.954 313.035 373.455 312.798 373.835C312.56 374.215 312.06 374.331 311.68 374.093C311.214 373.802 310.735 373.554 310.244 373.347C307.556 372.213 304.654 372.33 301.889 373.218C301.54 373.33 301.217 373.448 300.923 373.567L300.638 373.686C300.424 373.779 300.279 373.849 300.211 373.885C299.814 374.094 299.324 373.943 299.114 373.546C298.905 373.15 299.057 372.659 299.453 372.45C299.835 372.249 300.501 371.959 301.393 371.673Z" fill="#253368"/>
<path d="M307.629 414.604C307.92 414.445 308.285 414.553 308.443 414.844C308.601 415.135 308.494 415.499 308.203 415.658C304.344 417.758 300.33 418.816 296.293 418.872C295.962 418.876 295.69 418.611 295.685 418.28C295.68 417.948 295.945 417.676 296.277 417.672C300.118 417.619 303.941 416.611 307.629 414.604Z" fill="#DD936F"/>
<path fill-rule="evenodd" clip-rule="evenodd" d="M262.006 563.429C253.228 562.132 247.163 553.966 248.46 545.188L261.092 459.652C262.388 450.874 270.554 444.808 279.333 446.104C288.109 447.402 294.174 455.568 292.879 464.346L280.246 549.883C278.95 558.661 270.784 564.725 262.006 563.429Z" fill="#FFC999"/>
<path fill-rule="evenodd" clip-rule="evenodd" d="M287.523 500.606L292.878 464.345C294.17 455.604 288.073 447.395 279.332 446.104C270.591 444.814 262.384 450.91 261.092 459.651L255.787 495.567L287.523 500.606Z" fill="white"/>
<path d="M279.862 445.694C288.762 447.008 294.998 455.28 293.861 464.167L293.817 464.484L288.46 500.745C288.425 500.981 288.224 501.152 287.993 501.158L287.906 501.152L256.172 496.113C255.908 496.071 255.728 495.823 255.77 495.559C255.807 495.325 256.007 495.156 256.236 495.151L256.323 495.157L287.574 500.119L292.86 464.343C294.095 455.971 288.345 448.102 280.037 446.701L279.72 446.651C279.456 446.612 279.273 446.366 279.312 446.102C279.347 445.867 279.545 445.696 279.774 445.689L279.862 445.694Z" fill="#4E5C93"/>
<path fill-rule="evenodd" clip-rule="evenodd" d="M205.995 535.245C205.869 538.382 208.231 541.062 211.357 541.329L271.707 546.525C277.267 546.819 281.999 542.511 282.223 536.946C282.451 531.332 278.007 526.634 272.388 526.547L211.563 529.621C208.532 529.774 206.118 532.213 205.995 535.245Z" fill="#FFC999"/>
<path fill-rule="evenodd" clip-rule="evenodd" d="M200.083 527.3C200.083 527.3 210.923 526.442 213.698 532.22C216.212 537.454 211.295 540.592 211.295 540.592C211.295 540.592 206.897 544.484 200.727 546.61C196.661 548.009 188.658 549.888 187.634 547.851C186.299 545.196 195.481 543.597 195.139 541.463C194.789 539.271 192.866 539.461 188.355 538.455C185.537 537.825 182.51 538.315 180.221 537.326C175.749 535.393 183.717 527.233 200.083 527.3Z" fill="#FFC999"/>
<path d="M180.817 534.435C184.867 533.445 188.529 533.613 191.635 534.493C192.197 534.653 192.694 534.824 193.12 534.996L193.396 535.112C193.515 535.164 193.605 535.207 193.666 535.238C193.961 535.389 194.077 535.751 193.926 536.046C193.775 536.341 193.413 536.457 193.118 536.306L192.906 536.208C192.84 536.179 192.762 536.146 192.671 536.109C192.283 535.953 191.828 535.795 191.308 535.648C188.392 534.821 184.938 534.663 181.102 535.601C180.78 535.679 180.455 535.482 180.377 535.16C180.298 534.838 180.495 534.513 180.817 534.435Z" fill="#DD936F"/>
<path d="M185.589 531.102C188.579 530.612 191.827 530.631 194.966 531.503C195.285 531.592 195.472 531.923 195.383 532.242C195.295 532.561 194.964 532.748 194.644 532.66C191.696 531.84 188.615 531.822 185.783 532.287C185.485 532.335 185.211 532.387 184.963 532.438L184.723 532.49C184.541 532.531 184.418 532.562 184.358 532.579C184.039 532.668 183.708 532.48 183.619 532.161C183.531 531.842 183.718 531.511 184.038 531.423L184.346 531.346L184.459 531.32C184.79 531.245 185.168 531.171 185.589 531.102Z" fill="#DD936F"/>
<path d="M188.631 528.424C191.882 528.058 194.543 528.167 196.62 528.573L197.067 528.668C197.548 528.777 197.89 528.882 198.093 528.962C198.401 529.084 198.553 529.432 198.431 529.74C198.31 530.049 197.961 530.2 197.653 530.079L197.49 530.021C197.261 529.947 196.894 529.85 196.389 529.751C194.433 529.368 191.894 529.264 188.766 529.616C188.436 529.653 188.139 529.416 188.102 529.087C188.065 528.758 188.302 528.461 188.631 528.424Z" fill="#DD936F"/>
<path fill-rule="evenodd" clip-rule="evenodd" d="M174.637 797.688L136.846 652.344C134.124 641.874 140.656 631.241 151.227 628.936C161.797 626.632 172.162 633.581 174.044 644.236L198.018 793.121C199.238 800.034 196.941 805.679 190.08 807.174C183.22 808.669 176.404 804.482 174.637 797.688Z" fill="#FFC999"/>
<path fill-rule="evenodd" clip-rule="evenodd" d="M299.309 577.129C293.75 565.658 279.836 561.014 268.501 566.847L146.635 629.543C137.249 634.374 133.431 645.81 138.036 655.309C142.641 664.807 153.984 668.896 163.589 664.518L288.299 607.685C299.898 602.399 304.87 588.599 299.309 577.129Z" fill="#FFC999"/>
<path fill-rule="evenodd" clip-rule="evenodd" d="M177.566 809.052L200.981 804.708L195.428 767.427L168.545 772.413L177.566 809.052Z" fill="white"/>
<path d="M194.88 774.376C195.304 774.297 195.712 774.578 195.791 775.002C195.863 775.391 195.634 775.767 195.268 775.887L195.165 775.913L170.347 780.517C169.922 780.596 169.514 780.316 169.435 779.891C169.363 779.502 169.593 779.127 169.958 779.006L170.061 778.98L194.88 774.376Z" fill="#E4EBF7"/>
<path fill-rule="evenodd" clip-rule="evenodd" d="M174.96 808.026L200.705 803.25L210.754 850.167L152.748 860.926L151.262 853.714C150.725 851.059 152.167 848.402 154.684 847.408L169.243 840.023L176.318 834.052C178.451 832.252 179.421 829.437 178.84 826.708C177.59 820.845 175.486 810.898 174.96 808.026Z" fill="#4E5C93"/>
<path fill-rule="evenodd" clip-rule="evenodd" d="M210.479 851.807L152.648 862.535C152.099 862.637 151.573 862.275 151.471 861.726L150.268 855.24C150.167 854.693 150.528 854.166 151.077 854.064L208.908 843.337C209.456 843.235 209.984 843.597 210.084 844.144L211.287 850.63C211.389 851.179 211.027 851.705 210.479 851.807Z" fill="#CCD7EE"/>
<path fill-rule="evenodd" clip-rule="evenodd" d="M151.077 854.064C150.318 849.976 152.638 845.942 156.553 844.541L169.238 840.001L171.996 850.035L151.077 854.064Z" fill="#CCD7EE"/>
<path d="M208.834 842.943C209.051 842.903 209.26 843.046 209.301 843.264C209.336 843.454 209.23 843.637 209.058 843.707L208.98 843.73L151.15 854.458C150.933 854.498 150.724 854.354 150.684 854.137C150.649 853.947 150.754 853.764 150.927 853.694L151.004 853.671L208.834 842.943Z" fill="#A3B5D6"/>
<path d="M178.798 824.263L179.033 824.274C179.1 824.278 179.178 824.284 179.264 824.291C179.619 824.32 180.012 824.367 180.434 824.435C181.643 824.628 182.853 824.954 183.99 825.445C184.901 825.839 185.728 826.325 186.45 826.914C186.965 827.335 186.752 828.166 186.098 828.288C185.46 828.406 184.532 828.706 183.397 829.148L183.083 829.271C182.758 829.401 182.421 829.54 182.075 829.687C181.56 829.905 181.041 830.134 180.529 830.366L180.261 830.488L180.329 830.525C181.364 831.101 182.4 831.81 183.387 832.664L183.808 833.039C184.311 833.502 184.018 834.344 183.335 834.394C182.55 834.451 181.652 834.608 180.663 834.853C179.7 835.091 178.675 835.407 177.617 835.782C177.396 835.86 177.177 835.94 176.96 836.021L176.423 836.224L176.586 836.284C176.934 836.419 177.277 836.58 177.613 836.768L177.947 836.966C178.472 837.294 178.962 837.685 179.408 838.144C179.709 838.454 179.702 838.949 179.392 839.25C179.083 839.551 178.588 839.544 178.287 839.234C177.93 838.867 177.539 838.554 177.118 838.291C175.97 837.574 174.799 837.306 173.942 837.284L173.764 837.284L173.657 837.28C172.893 837.211 172.673 836.138 173.409 835.794L173.697 835.663C173.924 835.561 174.184 835.448 174.472 835.327C175.295 834.979 176.18 834.632 177.095 834.308C178.197 833.918 179.27 833.587 180.287 833.335C180.592 833.259 180.891 833.191 181.182 833.131L181.413 833.085L181.183 832.915C180.783 832.628 180.379 832.365 179.974 832.124L179.569 831.891C179.287 831.734 179.02 831.597 178.774 831.479L178.535 831.368C178.354 831.286 178.229 831.235 178.17 831.213C177.527 830.974 177.482 830.081 178.098 829.779L178.845 829.421L179.106 829.299C179.875 828.941 180.674 828.582 181.465 828.247L182.164 827.956C182.279 827.909 182.392 827.864 182.504 827.819L183.166 827.561C183.273 827.521 183.378 827.482 183.481 827.444L184.092 827.227L184.022 827.189L183.701 827.03L183.37 826.88C182.363 826.445 181.276 826.153 180.187 825.979C179.901 825.933 179.63 825.898 179.38 825.872L178.866 825.831C178.82 825.828 178.785 825.827 178.76 825.826C178.328 825.816 177.987 825.457 177.997 825.026C178.008 824.594 178.366 824.252 178.798 824.263Z" fill="#E4EBF7"/>
<path d="M180.278 816.963C179.191 817.057 178.278 817.183 177.609 817.302L177.346 817.351C177.258 817.368 177.174 817.399 177.098 817.445C176.186 817.981 175.748 818.683 175.911 819.472C176.028 820.037 176.416 820.483 176.975 820.879C177.315 821.12 177.647 821.293 177.885 821.395L177.975 821.452L178.799 821.914C179.061 822.059 179.342 822.212 179.638 822.372C181.048 823.134 182.533 823.895 184.024 824.607C185.002 825.073 185.951 825.503 186.862 825.888C189.916 827.18 192.367 827.908 194.071 827.907C196.518 827.907 197.52 826.329 196.54 823.634C195.055 819.545 191.217 817.49 185.933 816.965C184.086 816.781 182.17 816.799 180.278 816.963ZM185.778 818.521C190.403 818.981 193.659 820.671 194.969 823.903L195.071 824.168C195.692 825.876 195.395 826.343 194.071 826.344C192.637 826.344 190.342 825.662 187.471 824.448C186.583 824.073 185.655 823.652 184.697 823.195C183.232 822.496 181.77 821.746 180.381 820.996L179.555 820.546L178.584 820C178.355 819.896 178.113 819.769 177.879 819.603C177.614 819.416 177.459 819.238 177.442 819.155L177.443 819.144C177.45 819.112 177.504 819.042 177.693 818.915L177.779 818.86L178.104 818.803C178.706 818.704 179.492 818.601 180.413 818.521C182.215 818.364 184.037 818.348 185.778 818.521Z" fill="#E4EBF7"/>
<path fill-rule="evenodd" clip-rule="evenodd" d="M337.184 591.42C330.959 580.297 317.67 575.989 307.754 581.885L201.163 645.263C192.954 650.144 190.514 661.395 195.669 670.606C200.825 679.817 211.688 683.624 220.143 679.18L329.917 621.49C340.127 616.124 343.408 602.544 337.184 591.42Z" fill="#FFC999"/>
<path fill-rule="evenodd" clip-rule="evenodd" d="M156.549 820.585C149.898 818.338 146.205 811.239 148.186 804.505L190.541 660.425C193.592 650.046 204.663 644.287 214.912 647.748C225.162 651.209 230.476 662.5 226.611 672.604L172.949 812.865C170.441 819.424 163.202 822.831 156.549 820.585Z" fill="#FFC999"/>
<path fill-rule="evenodd" clip-rule="evenodd" d="M144.851 814.953L168.877 824.076L184.397 785.88L156.815 775.404L144.851 814.953Z" fill="white"/>
<path d="M152.879 786.568C153.017 786.197 153.407 785.993 153.783 786.078L153.884 786.109L177.537 794.927C177.942 795.078 178.148 795.528 177.997 795.933C177.859 796.304 177.469 796.508 177.093 796.423L176.991 796.392L153.338 787.574C152.934 787.423 152.728 786.973 152.879 786.568Z" fill="#E4EBF7"/>
<path fill-rule="evenodd" clip-rule="evenodd" d="M146.647 809.17L171.18 818.317L155.666 863.719L100.386 843.108L102.824 836.16C103.727 833.608 106.33 832.072 109.001 832.513L125.284 833.669L134.424 832.187C137.177 831.74 139.457 829.825 140.364 827.186C142.309 821.516 145.62 811.902 146.647 809.17Z" fill="#4E5C93"/>
<path fill-rule="evenodd" clip-rule="evenodd" d="M99.0146 844.684C98.4929 844.489 98.2267 843.906 98.4214 843.385L100.726 837.205C100.92 836.682 101.501 836.417 102.023 836.612L157.136 857.159C157.658 857.354 157.924 857.935 157.73 858.456L155.425 864.638C155.231 865.161 154.65 865.426 154.126 865.231L99.0146 844.684Z" fill="#CCD7EE"/>
<path fill-rule="evenodd" clip-rule="evenodd" d="M101.009 835.977C102.462 832.082 108.047 829.816 112.125 830.628L123.82 833.259L121.021 843.283L101.009 835.977Z" fill="#CCD7EE"/>
<path d="M101.025 836.408C101.092 836.227 101.277 836.124 101.461 836.153L101.539 836.173L156.65 856.72C156.857 856.798 156.962 857.028 156.885 857.235C156.817 857.416 156.632 857.519 156.449 857.491L156.37 857.47L101.26 836.923C101.053 836.846 100.948 836.615 101.025 836.408Z" fill="#A3B5D6"/>
<path d="M137.765 828.69C138.078 828.392 138.573 828.403 138.871 828.716L139.025 828.884C139.172 829.049 139.362 829.277 139.583 829.561C140.094 830.218 140.584 830.952 141.017 831.748C141.77 833.135 142.266 834.561 142.412 835.998C142.48 836.66 141.741 837.098 141.193 836.722C140.568 836.293 139.491 835.762 138.104 835.177C137.434 834.894 136.722 834.612 135.999 834.338L135.508 834.154L135.546 834.283C135.631 834.583 135.711 834.896 135.784 835.221L135.888 835.717C136.063 836.605 136.176 837.524 136.216 838.466C136.244 839.15 135.442 839.538 134.924 839.09C134.147 838.42 133.116 837.735 131.891 837.055C131.106 836.62 130.271 836.202 129.415 835.807L128.736 835.501L128.799 835.633C129.21 836.556 129.457 837.552 129.491 838.613L129.494 838.969C129.489 839.401 129.134 839.746 128.703 839.741C128.271 839.735 127.925 839.381 127.931 838.949C127.944 837.897 127.696 836.918 127.253 836.021C127.021 835.551 126.75 835.134 126.466 834.778L126.314 834.594C126.222 834.487 126.151 834.413 126.108 834.373C125.489 833.792 126.111 832.779 126.91 833.068L127.419 833.261L128.046 833.511C128.265 833.6 128.494 833.695 128.73 833.795C130.082 834.369 131.419 835.005 132.65 835.688C133.233 836.012 133.777 836.338 134.278 836.666L134.487 836.806L134.443 836.509L134.354 836.019C134.203 835.249 134.011 834.547 133.799 833.929L133.653 833.523C133.596 833.372 133.549 833.26 133.517 833.19C133.231 832.566 133.83 831.904 134.48 832.125L135.309 832.417C135.469 832.475 135.637 832.535 135.811 832.599C136.804 832.964 137.793 833.349 138.711 833.736C139.28 833.976 139.8 834.207 140.267 834.43L140.523 834.554L140.452 834.328C140.288 833.839 140.08 833.349 139.834 832.86L139.643 832.495C139.254 831.779 138.81 831.114 138.348 830.52L138.128 830.244C137.958 830.035 137.824 829.884 137.739 829.795C137.441 829.483 137.453 828.988 137.765 828.69Z" fill="#E4EBF7"/>
<path d="M141.303 824.612C139.662 824.599 138.919 825.552 139.212 826.843C139.281 827.148 139.402 827.456 139.56 827.763C139.702 828.04 139.844 828.262 139.946 828.404L140.081 828.653L140.601 829.555C140.786 829.873 140.985 830.209 141.196 830.56C142.198 832.232 143.26 833.905 144.337 835.468C145.19 836.707 146.019 837.827 146.812 838.799C148.495 840.864 149.957 842.203 151.224 842.684C153.015 843.363 154.325 842.34 154.795 839.923C155.63 835.62 153.357 831.861 149.038 828.68C147.537 827.574 145.877 826.608 144.169 825.782C143.31 825.367 142.564 825.045 141.988 824.82L141.563 824.659C141.479 824.629 141.392 824.613 141.303 824.612ZM140.981 826.177L141.154 826.175L141.634 826.362C142.141 826.567 142.772 826.844 143.489 827.19C145.116 827.977 146.694 828.896 148.111 829.939C151.996 832.801 153.955 836.041 153.26 839.625C152.957 841.184 152.539 841.511 151.778 841.222C150.846 840.868 149.542 839.673 148.024 837.811C147.26 836.874 146.456 835.788 145.624 834.581C144.568 833.048 143.523 831.402 142.537 829.756L141.951 828.767L141.298 827.629C141.285 827.606 141.274 827.585 141.264 827.567C141.154 827.406 141.053 827.246 140.951 827.049C140.849 826.849 140.773 826.658 140.737 826.497L140.712 826.377C140.687 826.224 140.727 826.185 140.981 826.177Z" fill="#E4EBF7"/>
<path fill-rule="evenodd" clip-rule="evenodd" d="M269.045 466.004C266.289 473.168 261.125 485.526 260.888 493.49C260.503 506.402 269.463 515.427 269.463 515.427C269.463 515.427 269.31 511.646 272.219 544.852C310.926 549.155 334.883 540.475 334.883 540.475L333.581 531.706L338.483 510.475C338.483 510.475 341.772 502.476 348.441 484.673C353.079 472.296 351.763 457.398 350.529 449.466C350.002 446.068 347.437 443.344 344.074 442.623C332.325 440.106 327.949 440.279 327.949 440.279L326.379 432.732C326.113 431.439 324.933 430.542 323.617 430.624L295.475 432.399C294.266 432.475 293.262 433.36 293.036 434.551L291.481 442.724L274.28 447.236C271.581 447.944 269.66 450.335 269.55 453.124L269.045 466.004Z" fill="white"/>
<path d="M320.06 440.691C320.327 440.675 320.556 440.877 320.573 441.144C320.588 441.381 320.43 441.589 320.207 441.644L320.121 441.657L294.783 443.255C294.516 443.272 294.286 443.07 294.27 442.803C294.255 442.566 294.413 442.358 294.636 442.303L294.722 442.29L320.06 440.691Z" fill="#4E5C93"/>
<path d="M327.705 438.184C327.943 437.938 328.336 437.932 328.582 438.171C328.801 438.383 328.83 438.717 328.666 438.961L328.595 439.048L296.404 472.23C296.08 472.564 295.53 472.432 295.377 472.016L295.35 471.923L289.47 443.225C289.401 442.889 289.618 442.561 289.953 442.492C290.256 442.43 290.551 442.599 290.658 442.879L290.686 442.975L296.331 470.523L327.705 438.184Z" fill="#CCD7EE"/>
<path fill-rule="evenodd" clip-rule="evenodd" d="M285.09 477.22C282.58 482.136 284.221 487.999 288.756 490.317C293.291 492.634 299.002 490.525 301.515 485.61C304.026 480.694 302.385 474.83 297.85 472.514C293.314 470.196 287.601 472.304 285.09 477.22Z" fill="#CCD7EE"/>
<path fill-rule="evenodd" clip-rule="evenodd" d="M284.08 477.261C281.569 482.177 283.21 488.04 287.744 490.356C292.281 492.673 297.992 490.566 300.504 485.651C303.015 480.733 301.374 474.87 296.839 472.553C292.302 470.237 286.589 472.345 284.08 477.261Z" fill="#E4EBF7"/>
<path fill-rule="evenodd" clip-rule="evenodd" d="M285.916 477.974C283.966 481.791 285.24 486.344 288.762 488.143C292.284 489.941 296.719 488.304 298.668 484.488C300.618 480.67 299.343 476.118 295.824 474.32C292.301 472.521 287.866 474.157 285.916 477.974Z" fill="#8352FD"/>
<path d="M350.486 448.984C350.752 448.96 350.987 449.156 351.011 449.422L351.17 451.285L351.288 452.783C351.367 453.808 351.444 454.88 351.518 455.985C351.661 458.114 351.779 460.199 351.866 462.186L351.907 463.171C352.083 467.701 352.071 471.336 351.822 473.765C351.562 476.298 350.292 480.485 348.251 485.904L348.051 486.432C347.654 487.478 347.233 488.556 346.791 489.663C345.906 491.877 344.971 494.123 344.026 496.323L342.912 498.888L341.846 501.275L341.763 501.446L333.635 531.915L335.09 540.864C335.124 541.076 335.016 541.281 334.83 541.374L334.746 541.407L334.1 541.583L333.937 541.625C333.277 541.798 332.501 541.99 331.614 542.197C329.081 542.787 326.166 543.377 322.909 543.927C307.23 546.576 289.9 547.379 272.069 545.22C271.837 545.192 271.659 545.003 271.644 544.77L271.519 543.272C271.37 541.613 271.098 538.773 270.728 534.989L269.465 522.221L268.907 516.646L268.603 516.152L268.24 515.549C268.051 515.231 267.852 514.889 267.644 514.526C266.652 512.796 265.661 510.925 264.736 508.979C263.486 506.351 262.456 503.792 261.718 501.376C261.046 499.175 260.634 497.142 260.518 495.312C260.225 490.671 260.598 487.011 261.702 483.248C262.289 481.246 263.082 479.191 264.25 476.58L264.726 475.532C264.977 474.989 265.329 474.239 265.72 473.41L268.642 467.243L268.446 459.43C268.44 459.193 268.606 458.991 268.831 458.944L268.918 458.934C269.155 458.929 269.357 459.095 269.403 459.319L269.413 459.406L269.613 467.335L269.567 467.553L265.772 475.577C265.604 475.937 265.466 476.236 265.369 476.449C264.087 479.279 263.242 481.435 262.63 483.52C261.559 487.172 261.198 490.72 261.484 495.251C261.594 496.999 261.992 498.959 262.643 501.094C263.365 503.459 264.379 505.975 265.61 508.563C266.524 510.486 267.503 512.336 268.483 514.045L268.882 514.733C269.01 514.952 269.135 515.162 269.254 515.36L269.785 516.224L269.858 516.436L272.067 538.764C272.267 540.848 272.417 542.447 272.51 543.488L272.58 544.306L273.393 544.401C290.296 546.323 306.727 545.584 321.682 543.15L322.747 542.973C325.715 542.472 328.396 541.938 330.758 541.401L331.394 541.255C332.126 541.084 332.782 540.924 333.357 540.776L334.064 540.591L332.664 531.966L332.674 531.764L340.856 501.12L341.645 499.361C341.83 498.945 342.024 498.505 342.225 498.045L342.429 497.577C343.61 494.869 344.791 492.062 345.892 489.304C346.332 488.202 346.752 487.129 347.147 486.088L347.707 484.594C349.508 479.721 350.627 475.942 350.859 473.666L350.915 473.048C351.095 470.796 351.1 467.626 350.961 463.765L350.94 463.209C350.852 460.94 350.719 458.526 350.553 456.049L350.44 454.423C350.402 453.891 350.363 453.368 350.324 452.857L350.048 449.51C350.024 449.244 350.22 449.009 350.486 448.984Z" fill="#4E5C93"/>
<path fill-rule="evenodd" clip-rule="evenodd" d="M324.223 550.597C347.348 550.597 360.194 631.108 376.15 661.463C373.883 667.325 363.004 676.89 363.004 676.89C363.004 676.89 363.497 681.815 363.81 684.777C351.435 692.817 328.958 695.408 328.958 695.408L328.445 699.536C291.605 711.717 246.445 690.978 246.445 690.978C246.445 690.978 245.671 689.985 246.664 686.815C230.782 684.839 199.005 660.829 199.005 660.829L203.418 652.722L169.195 609.267C169.195 609.267 235.806 568.986 254.846 557.45C271.978 547.067 268.979 545.458 268.979 545.458C268.979 545.458 300.45 550.597 324.223 550.597Z" fill="#4E5C93"/>
<path d="M220.094 629.063C220.278 628.791 220.647 628.72 220.918 628.904C221.159 629.067 221.242 629.376 221.129 629.634L221.077 629.727L200.442 660.228L200.661 660.432L201.344 661.052L201.6 661.28C202.861 662.395 204.351 663.639 206.063 664.979C210.959 668.812 216.649 672.645 223.069 676.224C230.407 680.313 238.238 683.803 246.517 686.509C246.829 686.611 246.999 686.946 246.897 687.257C246.795 687.568 246.46 687.738 246.149 687.637C237.794 684.906 229.893 681.385 222.492 677.26C216.015 673.65 210.274 669.783 205.332 665.914C203.773 664.694 202.396 663.552 201.204 662.511L200.814 662.168C200.545 661.93 200.298 661.708 200.073 661.503L199.367 660.845C199.319 660.799 199.281 660.763 199.253 660.736C199.074 660.56 199.028 660.295 199.126 660.072L199.178 659.98L220.094 629.063Z" fill="#253368"/>
<path d="M342.048 606.555C342.332 606.475 342.625 606.616 342.746 606.874L342.78 606.965L364.897 685.278C364.974 685.551 364.847 685.84 364.594 685.968L364.35 686.089C364.181 686.172 363.955 686.28 363.675 686.412L363.009 686.72C362.429 686.985 361.789 687.269 361.092 687.568C358.305 688.763 355.177 689.957 351.779 691.071C344.367 693.502 336.738 695.209 329.176 695.871C328.849 695.899 328.562 695.658 328.533 695.332C328.504 695.005 328.746 694.718 329.072 694.689C336.536 694.035 344.078 692.348 351.409 689.944C354.773 688.841 357.868 687.659 360.624 686.478L361.423 686.131C361.808 685.962 362.172 685.798 362.515 685.642L363.473 685.195L363.619 685.124L341.638 607.287C341.558 607.004 341.699 606.71 341.957 606.589L342.048 606.555Z" fill="#253368"/>
<path d="M317.026 540.706C317.32 540.681 317.582 540.875 317.652 541.152L317.671 541.287L318.93 556.397C319.133 558.867 319.343 561.447 319.561 564.128L320.216 572.255C321.197 584.508 322.172 597.025 323.108 609.496L323.725 617.799C324.183 623.998 324.621 630.07 325.039 635.992L325.666 644.999C327.137 666.429 328.262 685.051 328.964 700.098C328.978 700.387 328.781 700.643 328.498 700.705C307.052 705.4 284.415 703.456 262.707 697.367C258.098 696.073 253.908 694.688 250.217 693.301L249.276 692.944C248.516 692.652 247.818 692.374 247.183 692.114L246.331 691.758L245.612 691.446C245.368 691.336 245.232 691.079 245.269 690.821L245.291 690.725L286.606 561.346C286.705 561.034 287.039 560.862 287.351 560.962C287.632 561.051 287.8 561.331 287.758 561.613L287.736 561.707L246.584 690.576L247.266 690.864L248.018 691.173C248.67 691.436 249.385 691.717 250.161 692.012L250.634 692.191C254.294 693.566 258.452 694.941 263.028 696.224C284.238 702.175 306.335 704.135 327.279 699.753L327.755 699.65L327.497 694.371C326.81 680.781 325.82 664.654 324.577 646.468L324.208 641.114L323.675 633.529C323.312 628.417 322.934 623.198 322.542 617.886L321.924 609.584C320.989 597.116 320.014 584.601 319.033 572.349L317.661 555.442L316.486 541.348C316.458 541.021 316.7 540.734 317.026 540.706Z" fill="#253368"/>
<path d="M302.646 541.377C302.94 541.394 303.172 541.622 303.202 541.906L303.205 542.003L297.103 650.908C297.084 651.235 296.804 651.485 296.477 651.468C296.183 651.45 295.951 651.222 295.92 650.938L295.918 650.841L302.02 541.937C302.039 541.609 302.319 541.359 302.646 541.377Z" fill="#253368"/>
<path d="M277.927 552.635C278.118 552.369 278.489 552.308 278.755 552.499C278.991 552.669 279.066 552.98 278.945 553.234L278.891 553.327L233.822 616.127C233.631 616.393 233.261 616.454 232.994 616.263C232.758 616.093 232.683 615.782 232.804 615.527L232.858 615.435L277.927 552.635Z" fill="#253368"/>
<path fill-rule="evenodd" clip-rule="evenodd" d="M219.593 573.465L292.832 569.701L223.741 540.528L162.781 549.607L219.593 573.465Z" fill="#253368"/>
<path fill-rule="evenodd" clip-rule="evenodd" d="M217.412 568.156L270.604 565.421L221.667 544.267L176.15 550.828L217.412 568.156Z" fill="#4E5C93"/>
<path fill-rule="evenodd" clip-rule="evenodd" d="M292.395 573.413L292.845 569.726L218.161 572.978L218.987 577.053L292.395 573.413Z" fill="white"/>
<path d="M211.331 546.498C211.396 546.366 211.541 546.3 211.679 546.332L211.746 546.356L251.316 565.814C251.47 565.89 251.533 566.076 251.458 566.23C251.393 566.361 251.247 566.427 251.11 566.395L251.042 566.371L211.472 546.913C211.318 546.837 211.255 546.651 211.331 546.498Z" fill="#CCD7EE"/>
<path d="M217.025 544.888C217.087 544.755 217.232 544.688 217.37 544.717L217.437 544.74L261.773 565.628C261.928 565.701 261.994 565.886 261.921 566.041C261.859 566.173 261.714 566.241 261.576 566.212L261.508 566.189L217.173 545.301C217.018 545.228 216.952 545.043 217.025 544.888Z" fill="#CCD7EE"/>
<path d="M210.314 550.174C210.381 550.044 210.528 549.98 210.664 550.014L210.731 550.039L243.903 566.926C244.056 567.004 244.116 567.191 244.039 567.344C243.972 567.475 243.825 567.538 243.688 567.504L243.621 567.479L210.45 550.592C210.297 550.514 210.236 550.327 210.314 550.174Z" fill="#CCD7EE"/>
<path d="M200.741 550.114C200.807 549.984 200.954 549.92 201.091 549.954L201.158 549.979L234.329 566.868C234.482 566.946 234.543 567.132 234.465 567.285C234.398 567.416 234.252 567.479 234.115 567.446L234.048 567.421L200.876 550.532C200.724 550.454 200.663 550.267 200.741 550.114Z" fill="#CCD7EE"/>
<path d="M191.834 550.676C191.901 550.546 192.048 550.482 192.185 550.516L192.252 550.541L225.423 567.428C225.576 567.506 225.637 567.693 225.559 567.846C225.492 567.977 225.345 568.04 225.209 568.006L225.142 567.981L191.97 551.094C191.818 551.016 191.757 550.829 191.834 550.676Z" fill="#CCD7EE"/>
<path d="M262.288 562.248C262.459 562.245 262.6 562.381 262.603 562.553C262.606 562.7 262.506 562.824 262.369 562.859L262.298 562.868L216.945 563.644C216.774 563.647 216.632 563.51 216.63 563.339C216.627 563.192 216.727 563.067 216.864 563.033L216.934 563.024L262.288 562.248Z" fill="#CCD7EE"/>
<path d="M252.727 557.693C252.899 557.69 253.04 557.826 253.043 557.998C253.045 558.144 252.945 558.269 252.809 558.304L252.738 558.313L207.386 559.09C207.215 559.093 207.074 558.957 207.071 558.785C207.068 558.639 207.168 558.514 207.305 558.479L207.376 558.47L252.727 557.693Z" fill="#CCD7EE"/>
<path d="M240.667 554.053C240.838 554.05 240.979 554.186 240.982 554.358C240.985 554.505 240.885 554.629 240.748 554.664L240.677 554.673L195.324 555.449C195.153 555.452 195.012 555.315 195.009 555.144C195.006 554.997 195.106 554.872 195.243 554.838L195.314 554.829L240.667 554.053Z" fill="#CCD7EE"/>
<path d="M232.998 546.974C233.169 546.971 233.311 547.108 233.314 547.279C233.316 547.426 233.216 547.551 233.08 547.585L233.009 547.595L187.656 548.372C187.484 548.375 187.343 548.238 187.34 548.067C187.337 547.92 187.437 547.795 187.574 547.761L187.645 547.751L232.998 546.974Z" fill="#CCD7EE"/>
<path fill-rule="evenodd" clip-rule="evenodd" d="M218.93 577.049L215.664 576.986L161.978 553.651L149.486 457.386L208.038 475.67L218.93 577.049Z" fill="white"/>
<path fill-rule="evenodd" clip-rule="evenodd" d="M215.547 576.979L158.928 552.397C158.413 552.174 158.049 551.693 157.976 551.133L145.87 458.611C145.718 457.447 146.824 456.52 147.944 456.871L203.475 474.294C204.084 474.486 204.522 475.018 204.59 475.652L215.547 576.979Z" fill="#253368"/>
<path fill-rule="evenodd" clip-rule="evenodd" d="M361.796 553.931L360.572 554.15C352.174 555.642 344.156 550.047 342.662 541.649L328.882 464.182C327.39 455.785 332.987 447.767 341.383 446.272L342.609 446.055C351.005 444.561 359.025 450.158 360.517 458.556L374.297 536.022C375.791 544.419 370.194 552.438 361.796 553.931Z" fill="#FFC999"/>
<path fill-rule="evenodd" clip-rule="evenodd" d="M366.451 491.909L360.031 455.822C358.484 447.122 350.101 441.271 341.4 442.817C332.702 444.366 326.849 452.749 328.396 461.448L334.755 497.195L366.451 491.909Z" fill="white"/>
<path d="M360.404 455.264C360.638 455.222 360.863 455.356 360.942 455.571L360.965 455.655L367.384 491.744C367.426 491.979 367.291 492.204 367.075 492.283L366.99 492.305L334.155 497.971C333.924 498.011 333.702 497.88 333.621 497.668L333.597 497.585L328.031 468.464C327.98 468.202 328.152 467.949 328.415 467.898C328.648 467.854 328.874 467.985 328.957 468.199L328.981 468.283L334.458 496.936L366.346 491.434L360.013 455.825C359.971 455.591 360.105 455.367 360.32 455.287L360.404 455.264Z" fill="#4E5C93"/>
<path fill-rule="evenodd" clip-rule="evenodd" d="M266.557 551.313C266.912 555.789 270.725 559.195 275.212 559.044L361.838 556.13C369.79 555.599 375.775 548.671 375.146 540.727C374.51 532.712 367.396 526.796 359.399 527.631L273.508 542.372C269.229 543.105 266.213 546.984 266.557 551.313Z" fill="#FFC999"/>
<path fill-rule="evenodd" clip-rule="evenodd" d="M283.079 558.521C277.016 563.267 257.381 561.381 257.381 561.381L244.727 568.482C242.759 569.39 242.211 568.076 241.218 568.128C238.539 568.268 238.393 565.455 238.393 565.455C237.447 565.064 235.996 565.848 235.462 563.324C235.462 563.324 233.581 563.288 233.328 561.019C233.196 559.82 244.502 541.824 244.502 541.824L262.741 541.375C262.741 541.375 289.374 540.491 292.669 546.304C295.962 552.118 283.079 558.521 283.079 558.521Z" fill="#FFC999"/>
<path d="M244.133 540.559L277.131 541.432C277.462 541.441 277.724 541.717 277.715 542.048C277.707 542.346 277.483 542.588 277.197 542.627L277.099 542.632L244.443 541.768L242.881 544.276L241.317 546.809C241.058 547.23 240.801 547.649 240.545 548.067L238.328 551.723C235.544 556.363 233.597 559.858 233.542 560.265L233.542 560.287C233.578 560.617 233.341 560.914 233.012 560.95C232.682 560.987 232.386 560.75 232.349 560.42C232.277 559.78 233.628 557.264 236.401 552.606L238.017 549.914C238.996 548.295 240.03 546.605 241.076 544.912L243.609 540.84C243.706 540.686 243.866 540.585 244.043 540.563L244.133 540.559Z" fill="#DD936F"/>
<path d="M251.17 546.054C251.471 545.916 251.827 546.048 251.965 546.35C252.089 546.621 251.995 546.936 251.755 547.097L251.67 547.145L244.971 550.214L235.961 563.659C235.795 563.906 235.477 563.991 235.214 563.871L235.129 563.823C234.881 563.657 234.797 563.338 234.917 563.076L234.965 562.99L244.069 549.406C244.115 549.337 244.175 549.279 244.245 549.235L244.318 549.195L251.17 546.054Z" fill="#DD936F"/>
<path d="M252.591 550.911C252.89 550.77 253.248 550.897 253.39 551.197C253.517 551.466 253.427 551.783 253.189 551.947L253.104 551.996L247.807 554.504L238.864 565.826C238.682 566.057 238.363 566.118 238.112 565.985L238.022 565.925C237.79 565.743 237.73 565.424 237.863 565.173L237.923 565.082L246.953 553.651C246.991 553.602 247.036 553.56 247.087 553.526L247.167 553.48L252.591 550.911Z" fill="#DD936F"/>
<path d="M257.988 553.494C258.279 553.337 258.643 553.447 258.8 553.738C258.942 554.001 258.868 554.322 258.639 554.498L258.557 554.551L251.219 558.502L241.967 568.154C241.763 568.367 241.44 568.397 241.203 568.24L241.118 568.172C240.906 567.968 240.876 567.646 241.033 567.408L241.1 567.324L250.416 557.605L250.565 557.492L257.988 553.494Z" fill="#DD936F"/>
<path d="M168.829 608.801C169.057 608.621 169.378 608.636 169.588 608.822L169.662 608.9L203.884 652.355C204.087 652.612 204.042 652.985 203.785 653.188C203.556 653.368 203.236 653.353 203.026 653.167L202.952 653.089L168.73 609.634C168.527 609.377 168.571 609.004 168.829 608.801Z" fill="#253368"/>
</svg>
